<svg enable-background="new 0 0 1920 791" viewBox="0 0 1920 791" xmlns="http://www.w3.org/2000/svg"><g fill="#4e11be"><path d="m1625 205c27.6 0 50 22.4 50 50s-22.4 50-50 50-50-22.4-50-50 22.4-50 50-50z"/><path d="m992 602c27.6 0 50 22.4 50 50s-22.4 50-50 50-50-22.4-50-50 22.4-50 50-50z"/><path d="m1242 624 188-204 468 371h-445z"/><path d="m1339 386c76.8 0 139 62.2 139 139s-62.2 139-139 139-139-62.2-139-139 62.2-139 139-139z"/><path d="m1026.5-188c145 0 262.5 117.5 262.5 262.5s-117.5 262.5-262.5 262.5-262.5-117.5-262.5-262.5 117.5-262.5 262.5-262.5z"/><path d="m174.5 337.6 171.7 220.8c26.9 34.6 20.7 84.4-13.9 111.3l-206.6 160.7c-34.6 26.8-84.4 20.6-111.2-13.9l-171.7-220.8c-26.9-34.6-20.7-84.4 13.9-111.3l206.6-160.7c34.6-26.9 84.4-20.7 111.2 13.9z"/><path d="m273 105c27.6 0 50 22.4 50 50s-22.4 50-50 50-50-22.4-50-50 22.4-50 50-50z"/></g></svg>