<svg width="165" height="45" viewBox="0 0 165 45" fill="none" xmlns="http://www.w3.org/2000/svg">
<path d="M23.6 0.800003C11.9 0.800003 2.4 10.4 2.4 22.2C2.4 34 11.9 43.6 23.6 43.6C35.3 43.6 44.8 34 44.8 22.2C44.8 10.4 35.3 0.800003 23.6 0.800003ZM34.6 1.6C41.8 5.6 46.7 13.3 46.7 22.1C46.7 30.9 41.8 38.7 34.6 42.6C43.6 39.9 49.8 31.6 49.8 22.1C49.8 12.7 43.6 4.3 34.6 1.6ZM23.9 5.7C25.1 5.7 26 6.6 25.9 7.8V8.4C28 8.7 29.9 9.4 31.6 10.4C32.4 10.8 33 11.6 33 12.8C33 14.3 31.8 15.5 30.3 15.5C29.8 15.5 29.3 15.4 28.9 15.1C27.8 14.5 26.7 14 25.6 13.7L25.5 19.8C31.5 21.5 34.1 24 34 28.5C34 33 30.5 35.8 25.5 36.3V38.4C25.5 39.6 24.6 40.5 23.4 40.5C22.2 40.5 21.3 39.6 21.4 38.4V36.2C18.6 35.8 15.9 34.8 13.6 33.3C12.8 32.8 12.3 32 12.3 30.9C12.3 29.3 13.5 28.2 15.1 28.2C15.6 28.2 16.2 28.4 16.6 28.7C18.3 29.8 19.8 30.6 21.7 31L21.8 24.6C16.1 23 13.3 20.7 13.4 16C13.4 11.6 16.8 8.7 21.8 8.2V7.7C21.8 6.6 22.7 5.7 23.9 5.7ZM21.9 13.3C20 13.6 19.1 14.5 19.1 15.8C19.1 17 19.6 17.9 21.8 18.7L21.9 13.3ZM25.5 25.8L25.4 31.4C27.3 31.1 28.2 30.3 28.2 28.8C28.4 27.4 27.7 26.6 25.5 25.8Z" fill="#3E80FF"/>
<path d="M65.4659 20H63.7045C63.6004 19.4934 63.4181 19.0483 63.1577 18.6648C62.902 18.2812 62.5895 17.9593 62.2202 17.6989C61.8556 17.4337 61.4508 17.2348 61.0057 17.1023C60.5606 16.9697 60.0966 16.9034 59.6136 16.9034C58.733 16.9034 57.9351 17.1259 57.2202 17.571C56.5099 18.0161 55.9441 18.6719 55.5227 19.5384C55.1061 20.4048 54.8977 21.4678 54.8977 22.7273C54.8977 23.9867 55.1061 25.0497 55.5227 25.9162C55.9441 26.7827 56.5099 27.4384 57.2202 27.8835C57.9351 28.3286 58.733 28.5511 59.6136 28.5511C60.0966 28.5511 60.5606 28.4848 61.0057 28.3523C61.4508 28.2197 61.8556 28.0232 62.2202 27.7628C62.5895 27.4976 62.902 27.1733 63.1577 26.7898C63.4181 26.4015 63.6004 25.9564 63.7045 25.4545H65.4659C65.3333 26.1979 65.0919 26.8632 64.7415 27.4503C64.3911 28.0374 63.9555 28.5369 63.4347 28.9489C62.9138 29.3561 62.3291 29.6662 61.6804 29.8793C61.0365 30.0923 60.3475 30.1989 59.6136 30.1989C58.3731 30.1989 57.2699 29.8958 56.304 29.2898C55.3381 28.6837 54.5781 27.822 54.0241 26.7045C53.4702 25.5871 53.1932 24.2614 53.1932 22.7273C53.1932 21.1932 53.4702 19.8674 54.0241 18.75C54.5781 17.6326 55.3381 16.7708 56.304 16.1648C57.2699 15.5587 58.3731 15.2557 59.6136 15.2557C60.3475 15.2557 61.0365 15.3622 61.6804 15.5753C62.3291 15.7884 62.9138 16.1009 63.4347 16.5128C63.9555 16.92 64.3911 17.4171 64.7415 18.0043C65.0919 18.5866 65.3333 19.2519 65.4659 20ZM68.0849 30V19.0909H69.7042V20.7386H69.8178C70.0167 20.1989 70.3765 19.7609 70.8974 19.4247C71.4182 19.0885 72.0053 18.9205 72.6587 18.9205C72.7818 18.9205 72.9357 18.9228 73.1204 18.9276C73.305 18.9323 73.4447 18.9394 73.5394 18.9489V20.6534C73.4826 20.6392 73.3524 20.6179 73.1488 20.5895C72.9499 20.5563 72.7392 20.5398 72.5167 20.5398C71.9864 20.5398 71.5129 20.651 71.0962 20.8736C70.6843 21.0914 70.3576 21.3944 70.1161 21.7827C69.8794 22.1662 69.761 22.6042 69.761 23.0966V30H68.0849ZM79.7681 30.2273C78.717 30.2273 77.8103 29.9953 77.0479 29.5312C76.2904 29.0625 75.7056 28.4091 75.2937 27.571C74.8865 26.7282 74.6829 25.7481 74.6829 24.6307C74.6829 23.5133 74.8865 22.5284 75.2937 21.6761C75.7056 20.8191 76.2785 20.1515 77.0124 19.6733C77.7511 19.1903 78.6128 18.9489 79.5977 18.9489C80.1658 18.9489 80.7269 19.0436 81.2809 19.233C81.8349 19.4223 82.3391 19.7301 82.7937 20.1562C83.2482 20.5777 83.6104 21.1364 83.8803 21.8324C84.1502 22.5284 84.2852 23.3854 84.2852 24.4034V25.1136H75.8761V23.6648H82.5806C82.5806 23.0492 82.4575 22.5 82.2113 22.017C81.9698 21.5341 81.6242 21.1529 81.1744 20.8736C80.7293 20.5942 80.2037 20.4545 79.5977 20.4545C78.93 20.4545 78.3524 20.6203 77.8647 20.9517C77.3817 21.2784 77.0101 21.7045 76.7496 22.2301C76.4892 22.7557 76.359 23.3191 76.359 23.9205V24.8864C76.359 25.7102 76.5011 26.4086 76.7852 26.9815C77.074 27.5497 77.4741 27.983 77.9854 28.2812C78.4968 28.5748 79.091 28.7216 79.7681 28.7216C80.2085 28.7216 80.6062 28.66 80.9613 28.5369C81.3211 28.4091 81.6313 28.2197 81.8917 27.9688C82.1521 27.7131 82.3533 27.3958 82.4954 27.017L84.1147 27.4716C83.9442 28.0208 83.6578 28.5038 83.2553 28.9205C82.8529 29.3324 82.3557 29.6544 81.7638 29.8864C81.172 30.1136 80.5067 30.2273 79.7681 30.2273ZM87.5824 34.0909C87.2983 34.0909 87.045 34.0672 86.8224 34.0199C86.5999 33.9773 86.446 33.9347 86.3608 33.892L86.7869 32.4148C87.1941 32.5189 87.554 32.5568 87.8665 32.5284C88.179 32.5 88.456 32.3603 88.6974 32.1094C88.9437 31.8632 89.1686 31.4631 89.3722 30.9091L89.6847 30.0568L85.6506 19.0909H87.4688L90.4801 27.7841H90.5938L93.6051 19.0909H95.4233L90.7926 31.5909C90.5843 32.1544 90.3262 32.6207 90.0185 32.9901C89.7107 33.3641 89.3532 33.6411 88.946 33.821C88.5436 34.0009 88.089 34.0909 87.5824 34.0909ZM97.6357 34.0909V19.0909H99.255V20.8239H99.4538C99.5769 20.6345 99.7474 20.393 99.9652 20.0994C100.188 19.8011 100.505 19.536 100.917 19.304C101.334 19.0672 101.897 18.9489 102.607 18.9489C103.526 18.9489 104.335 19.1785 105.036 19.6378C105.737 20.0971 106.284 20.7481 106.677 21.5909C107.07 22.4337 107.266 23.428 107.266 24.5739C107.266 25.7292 107.07 26.7306 106.677 27.5781C106.284 28.4209 105.739 29.0743 105.043 29.5384C104.347 29.9976 103.545 30.2273 102.636 30.2273C101.935 30.2273 101.374 30.1113 100.952 29.8793C100.531 29.6425 100.207 29.375 99.9794 29.0767C99.7521 28.7737 99.5769 28.5227 99.4538 28.3239H99.3118V34.0909H97.6357ZM99.2834 24.5455C99.2834 25.3693 99.4041 26.0961 99.6456 26.7259C99.8871 27.3509 100.24 27.8409 100.704 28.196C101.168 28.5464 101.736 28.7216 102.408 28.7216C103.109 28.7216 103.694 28.5369 104.163 28.1676C104.636 27.7936 104.991 27.2917 105.228 26.6619C105.469 26.0275 105.59 25.322 105.59 24.5455C105.59 23.7784 105.472 23.0871 105.235 22.4716C105.003 21.8513 104.65 21.3613 104.177 21.0014C103.708 20.6368 103.119 20.4545 102.408 20.4545C101.727 20.4545 101.154 20.6274 100.69 20.973C100.226 21.3139 99.8752 21.7921 99.6385 22.4077C99.4018 23.0185 99.2834 23.7311 99.2834 24.5455ZM111.812 15.4545V30H110.05V15.4545H111.812ZM116.792 23.4375V30H115.116V19.0909H116.735V20.7955H116.877C117.133 20.2415 117.521 19.7964 118.042 19.4602C118.563 19.1193 119.235 18.9489 120.059 18.9489C120.798 18.9489 121.444 19.1004 121.998 19.4034C122.552 19.7017 122.983 20.1562 123.291 20.767C123.599 21.3731 123.752 22.1402 123.752 23.0682V30H122.076V23.1818C122.076 22.3248 121.854 21.6572 121.409 21.179C120.964 20.696 120.353 20.4545 119.576 20.4545C119.041 20.4545 118.563 20.5705 118.142 20.8026C117.725 21.0346 117.396 21.3731 117.154 21.8182C116.913 22.2633 116.792 22.803 116.792 23.4375ZM135.345 19.0909L131.311 30H129.607L125.572 19.0909H127.391L130.402 27.7841H130.516L133.527 19.0909H135.345ZM141.741 30.2273C140.69 30.2273 139.783 29.9953 139.021 29.5312C138.263 29.0625 137.678 28.4091 137.266 27.571C136.859 26.7282 136.656 25.7481 136.656 24.6307C136.656 23.5133 136.859 22.5284 137.266 21.6761C137.678 20.8191 138.251 20.1515 138.985 19.6733C139.724 19.1903 140.585 18.9489 141.57 18.9489C142.138 18.9489 142.7 19.0436 143.254 19.233C143.808 19.4223 144.312 19.7301 144.766 20.1562C145.221 20.5777 145.583 21.1364 145.853 21.8324C146.123 22.5284 146.258 23.3854 146.258 24.4034V25.1136H137.849V23.6648H144.553C144.553 23.0492 144.43 22.5 144.184 22.017C143.942 21.5341 143.597 21.1529 143.147 20.8736C142.702 20.5942 142.176 20.4545 141.57 20.4545C140.903 20.4545 140.325 20.6203 139.837 20.9517C139.354 21.2784 138.983 21.7045 138.722 22.2301C138.462 22.7557 138.332 23.3191 138.332 23.9205V24.8864C138.332 25.7102 138.474 26.4086 138.758 26.9815C139.047 27.5497 139.447 27.983 139.958 28.2812C140.469 28.5748 141.064 28.7216 141.741 28.7216C142.181 28.7216 142.579 28.66 142.934 28.5369C143.294 28.4091 143.604 28.2197 143.864 27.9688C144.125 27.7131 144.326 27.3958 144.468 27.017L146.087 27.4716C145.917 28.0208 145.63 28.5038 145.228 28.9205C144.826 29.3324 144.328 29.6544 143.737 29.8864C143.145 30.1136 142.479 30.2273 141.741 30.2273ZM156.535 21.5341L155.029 21.9602C154.934 21.7093 154.795 21.4654 154.61 21.2287C154.43 20.9872 154.184 20.7884 153.871 20.6321C153.559 20.4759 153.159 20.3977 152.671 20.3977C152.004 20.3977 151.447 20.5516 151.002 20.8594C150.562 21.1624 150.342 21.5483 150.342 22.017C150.342 22.4337 150.493 22.7628 150.796 23.0043C151.099 23.2457 151.573 23.447 152.217 23.608L153.836 24.0057C154.811 24.2424 155.538 24.6046 156.016 25.0923C156.495 25.5753 156.734 26.1979 156.734 26.9602C156.734 27.5852 156.554 28.1439 156.194 28.6364C155.839 29.1288 155.342 29.517 154.702 29.8011C154.063 30.0852 153.32 30.2273 152.472 30.2273C151.36 30.2273 150.439 29.9858 149.71 29.5028C148.98 29.0199 148.519 28.3144 148.325 27.3864L149.915 26.9886C150.067 27.5758 150.353 28.0161 150.775 28.3097C151.201 28.6032 151.757 28.75 152.444 28.75C153.225 28.75 153.845 28.5843 154.305 28.2528C154.769 27.9167 155.001 27.5142 155.001 27.0455C155.001 26.6667 154.868 26.3494 154.603 26.0938C154.338 25.8333 153.931 25.6392 153.381 25.5114L151.563 25.0852C150.564 24.8485 149.83 24.4815 149.362 23.9844C148.897 23.4825 148.665 22.8551 148.665 22.1023C148.665 21.4867 148.838 20.9422 149.184 20.4688C149.534 19.9953 150.01 19.6236 150.612 19.3537C151.218 19.0838 151.904 18.9489 152.671 18.9489C153.751 18.9489 154.598 19.1856 155.214 19.6591C155.834 20.1326 156.274 20.7576 156.535 21.5341ZM164.001 19.0909V20.5114H158.348V19.0909H164.001ZM159.995 16.4773H161.672V26.875C161.672 27.3485 161.74 27.7036 161.877 27.9403C162.02 28.1723 162.199 28.3286 162.417 28.4091C162.64 28.4848 162.874 28.5227 163.12 28.5227C163.305 28.5227 163.457 28.5133 163.575 28.4943C163.693 28.4706 163.788 28.4517 163.859 28.4375L164.2 29.9432C164.086 29.9858 163.928 30.0284 163.724 30.071C163.52 30.1184 163.262 30.142 162.95 30.142C162.476 30.142 162.012 30.0402 161.558 29.8366C161.108 29.633 160.734 29.3229 160.436 28.9062C160.142 28.4896 159.995 27.964 159.995 27.3295V16.4773Z" fill="#24126A"/>
<path d="M65.4659 20V20.5H66.0623L65.9582 19.9128L65.4659 20ZM63.7045 20L63.2148 20.1007L63.2969 20.5H63.7045V20ZM63.1577 18.6648L62.7416 18.9421L62.744 18.9456L63.1577 18.6648ZM62.2202 17.6989L61.9261 18.1033L61.932 18.1075L62.2202 17.6989ZM61.0057 17.1023L60.8629 17.5815L60.8629 17.5815L61.0057 17.1023ZM57.2202 17.571L56.9559 17.1465L56.9547 17.1473L57.2202 17.571ZM55.5227 19.5384L55.0731 19.3197L55.0721 19.3217L55.5227 19.5384ZM55.5227 25.9162L55.0721 26.1329L55.0731 26.1349L55.5227 25.9162ZM57.2202 27.8835L56.9547 28.3072L56.9559 28.308L57.2202 27.8835ZM61.0057 28.3523L60.8629 27.8731L60.8629 27.8731L61.0057 28.3523ZM62.2202 27.7628L62.5108 28.1697L62.5118 28.1689L62.2202 27.7628ZM63.1577 26.7898L62.7424 26.5113L62.7416 26.5124L63.1577 26.7898ZM63.7045 25.4545V24.9545H63.2977L63.215 25.3529L63.7045 25.4545ZM65.4659 25.4545L65.9581 25.5423L66.063 24.9545H65.4659V25.4545ZM64.7415 27.4503L64.3121 27.1941L64.3121 27.1941L64.7415 27.4503ZM63.4347 28.9489L63.7426 29.3428L63.7448 29.341L63.4347 28.9489ZM61.6804 29.8793L61.5244 29.4042L61.5233 29.4046L61.6804 29.8793ZM56.304 29.2898L56.0382 29.7133L56.0382 29.7133L56.304 29.2898ZM54.0241 26.7045L54.4721 26.4825L54.4721 26.4825L54.0241 26.7045ZM54.0241 18.75L53.5762 18.5279L54.0241 18.75ZM61.6804 15.5753L61.5233 16.05L61.5244 16.0503L61.6804 15.5753ZM63.4347 16.5128L63.1245 16.905L63.1267 16.9067L63.4347 16.5128ZM64.7415 18.0043L64.3121 18.2605L64.313 18.262L64.7415 18.0043ZM65.4659 19.5H63.7045V20.5H65.4659V19.5ZM64.1943 19.8993C64.0784 19.3357 63.8728 18.8279 63.5713 18.3839L62.744 18.9456C62.9634 19.2687 63.1223 19.6511 63.2148 20.1007L64.1943 19.8993ZM63.5737 18.3874C63.2845 17.9537 62.929 17.5869 62.5083 17.2902L61.932 18.1075C62.25 18.3317 62.5194 18.6088 62.7416 18.9421L63.5737 18.3874ZM62.5143 17.2945C62.1024 16.995 61.6462 16.7713 61.1484 16.6231L60.8629 17.5815C61.2554 17.6984 61.6087 17.8724 61.9261 18.1032L62.5143 17.2945ZM61.1484 16.6231C60.6552 16.4762 60.143 16.4034 59.6136 16.4034V17.4034C60.0502 17.4034 60.466 17.4632 60.8629 17.5815L61.1484 16.6231ZM59.6136 16.4034C58.644 16.4034 57.7539 16.6498 56.9559 17.1466L57.4844 17.9955C58.1164 17.6021 58.8219 17.4034 59.6136 17.4034V16.4034ZM56.9547 17.1473C56.1538 17.6492 55.5292 18.3818 55.0731 19.3197L55.9724 19.757C56.3591 18.9619 56.8661 18.383 57.4857 17.9947L56.9547 17.1473ZM55.0721 19.3217C54.6145 20.2733 54.3977 21.4151 54.3977 22.7273H55.3977C55.3977 21.5205 55.5976 20.5363 55.9733 19.755L55.0721 19.3217ZM54.3977 22.7273C54.3977 24.0395 54.6145 25.1812 55.0721 26.1329L55.9733 25.6995C55.5976 24.9182 55.3977 23.934 55.3977 22.7273H54.3977ZM55.0731 26.1349C55.5292 27.0727 56.1538 27.8053 56.9547 28.3072L57.4857 27.4598C56.8661 27.0716 56.3591 26.4926 55.9724 25.6975L55.0731 26.1349ZM56.9559 28.308C57.7539 28.8047 58.644 29.0511 59.6136 29.0511V28.0511C58.8219 28.0511 58.1164 27.8524 57.4844 27.4591L56.9559 28.308ZM59.6136 29.0511C60.143 29.0511 60.6552 28.9784 61.1484 28.8315L60.8629 27.8731C60.466 27.9913 60.0502 28.0511 59.6136 28.0511V29.0511ZM61.1484 28.8315C61.6445 28.6837 62.0996 28.4633 62.5108 28.1697L61.9296 27.3559C61.6116 27.5831 61.257 27.7557 60.8629 27.8731L61.1484 28.8315ZM62.5118 28.1689C62.9307 27.8682 63.2851 27.5 63.5737 27.0671L62.7416 26.5124C62.5189 26.8466 62.2483 27.1271 61.9286 27.3566L62.5118 28.1689ZM63.5729 27.0683C63.8726 26.6215 64.0781 26.1151 64.1941 25.5562L63.215 25.3529C63.1227 25.7977 62.9636 26.1816 62.7424 26.5113L63.5729 27.0683ZM63.7045 25.9545H65.4659V24.9545H63.7045V25.9545ZM64.9737 25.3668C64.8506 26.0568 64.6285 26.664 64.3121 27.1941L65.1708 27.7065C65.5552 27.0624 65.8161 26.339 65.9581 25.5423L64.9737 25.3668ZM64.3121 27.1941C63.9919 27.7306 63.5962 28.1836 63.1245 28.5567L63.7448 29.341C64.3147 28.8903 64.7903 28.3442 65.1708 27.7065L64.3121 27.1941ZM63.1267 28.555C62.6529 28.9254 62.1199 29.2086 61.5244 29.4042L61.8364 30.3543C62.5382 30.1238 63.1747 29.7868 63.7426 29.3428L63.1267 28.555ZM61.5233 29.4046C60.9341 29.5996 60.2985 29.6989 59.6136 29.6989V30.6989C60.3965 30.6989 61.1389 30.5851 61.8375 30.354L61.5233 29.4046ZM59.6136 29.6989C58.4585 29.6989 57.449 29.418 56.5697 28.8662L56.0382 29.7133C57.0907 30.3737 58.2877 30.6989 59.6136 30.6989V29.6989ZM56.5697 28.8662C55.6892 28.3138 54.9891 27.5252 54.4721 26.4825L53.5762 26.9266C54.1672 28.1187 54.9869 29.0536 56.0382 29.7133L56.5697 28.8662ZM54.4721 26.4825C53.9593 25.4481 53.6932 24.2017 53.6932 22.7273H52.6932C52.6932 24.321 52.981 25.7261 53.5762 26.9266L54.4721 26.4825ZM53.6932 22.7273C53.6932 21.2528 53.9593 20.0064 54.4721 18.9721L53.5762 18.5279C52.981 19.7284 52.6932 21.1335 52.6932 22.7273H53.6932ZM54.4721 18.9721C54.9891 17.9293 55.6892 17.1408 56.5697 16.5883L56.0382 15.7412C54.9869 16.4009 54.1672 17.3358 53.5762 18.5279L54.4721 18.9721ZM56.5697 16.5883C57.449 16.0366 58.4585 15.7557 59.6136 15.7557V14.7557C58.2877 14.7557 57.0907 15.0808 56.0382 15.7412L56.5697 16.5883ZM59.6136 15.7557C60.2985 15.7557 60.9341 15.855 61.5233 16.05L61.8375 15.1006C61.1389 14.8694 60.3965 14.7557 59.6136 14.7557V15.7557ZM61.5244 16.0503C62.1188 16.2456 62.6511 16.5305 63.1245 16.905L63.7448 16.1206C63.1766 15.6712 62.5394 15.3311 61.8364 15.1003L61.5244 16.0503ZM63.1267 16.9067C63.5973 17.2746 63.9923 17.7245 64.3121 18.2605L65.1708 17.748C64.7899 17.1098 64.3137 16.5654 63.7426 16.1189L63.1267 16.9067ZM64.313 18.262C64.6284 18.7861 64.8504 19.3923 64.9736 20.0872L65.9582 19.9128C65.8162 19.1114 65.5554 18.3872 65.1699 17.7465L64.313 18.262ZM68.0849 30H67.5849V30.5H68.0849V30ZM68.0849 19.0909V18.5909H67.5849V19.0909H68.0849ZM69.7042 19.0909H70.2042V18.5909H69.7042V19.0909ZM69.7042 20.7386H69.2042V21.2386H69.7042V20.7386ZM69.8178 20.7386V21.2386H70.1665L70.287 20.9115L69.8178 20.7386ZM70.8974 19.4247L70.6262 19.0046L70.6262 19.0046L70.8974 19.4247ZM73.5394 18.9489H74.0394V18.4964L73.5892 18.4513L73.5394 18.9489ZM73.5394 20.6534L73.4182 21.1385L74.0394 21.2938V20.6534H73.5394ZM73.1488 20.5895L73.0666 21.0829L73.0797 21.0847L73.1488 20.5895ZM71.0962 20.8736L71.3299 21.3156L71.3318 21.3146L71.0962 20.8736ZM70.1161 21.7827L69.6915 21.5186L69.6907 21.52L70.1161 21.7827ZM69.761 30V30.5H70.261V30H69.761ZM68.5849 30V19.0909H67.5849V30H68.5849ZM68.0849 19.5909H69.7042V18.5909H68.0849V19.5909ZM69.2042 19.0909V20.7386H70.2042V19.0909H69.2042ZM69.7042 21.2386H69.8178V20.2386H69.7042V21.2386ZM70.287 20.9115C70.4454 20.4815 70.7312 20.1271 71.1685 19.8448L70.6262 19.0046C70.0218 19.3947 69.588 19.9162 69.3487 20.5658L70.287 20.9115ZM71.1685 19.8448C71.6041 19.5637 72.0961 19.4205 72.6587 19.4205V18.4205C71.9146 18.4205 71.2323 18.6134 70.6262 19.0046L71.1685 19.8448ZM72.6587 19.4205C72.776 19.4205 72.9253 19.4227 73.1076 19.4274L73.1332 18.4277C72.9462 18.4229 72.7877 18.4205 72.6587 18.4205V19.4205ZM73.1076 19.4274C73.2891 19.432 73.4139 19.4388 73.4897 19.4464L73.5892 18.4513C73.4756 18.44 73.321 18.4325 73.1332 18.4277L73.1076 19.4274ZM73.0394 18.9489V20.6534H74.0394V18.9489H73.0394ZM73.6607 20.1683C73.5728 20.1464 73.414 20.1217 73.2179 20.0943L73.0797 21.0847C73.1795 21.0986 73.2587 21.1104 73.3184 21.1202C73.3482 21.1251 73.3718 21.1292 73.3898 21.1326C73.3987 21.1343 73.4056 21.1357 73.4107 21.1368C73.416 21.1379 73.4182 21.1385 73.4182 21.1385L73.6607 20.1683ZM73.231 20.0963C73.0023 20.0582 72.764 20.0398 72.5167 20.0398V21.0398C72.7145 21.0398 72.8975 21.0545 73.0666 21.0827L73.231 20.0963ZM72.5167 20.0398C71.9144 20.0398 71.3583 20.1667 70.8607 20.4325L71.3318 21.3146C71.6675 21.1353 72.0583 21.0398 72.5167 21.0398V20.0398ZM70.8625 20.4316C70.3739 20.6899 69.9807 21.0537 69.6915 21.5186L70.5407 22.0467C70.7345 21.7351 70.9947 21.4929 71.3299 21.3156L70.8625 20.4316ZM69.6907 21.52C69.4007 21.9897 69.261 22.5203 69.261 23.0966H70.261C70.261 22.688 70.358 22.3427 70.5416 22.0453L69.6907 21.52ZM69.261 23.0966V30H70.261V23.0966H69.261ZM69.761 29.5H68.0849V30.5H69.761V29.5ZM77.0479 29.5312L76.7848 29.9565L76.788 29.9583L77.0479 29.5312ZM75.2937 27.571L74.8435 27.7885L74.845 27.7916L75.2937 27.571ZM75.2937 21.6761L74.843 21.4595L74.8425 21.4606L75.2937 21.6761ZM77.0124 19.6733L77.2854 20.0922L77.2861 20.0918L77.0124 19.6733ZM81.2809 19.233L81.4426 18.7598L81.4426 18.7598L81.2809 19.233ZM82.7937 20.1562L82.4517 20.521L82.4537 20.5229L82.7937 20.1562ZM83.8803 21.8324L84.3465 21.6516L84.3465 21.6516L83.8803 21.8324ZM84.2852 25.1136V25.6136H84.7852V25.1136H84.2852ZM75.8761 25.1136H75.3761V25.6136H75.8761V25.1136ZM75.8761 23.6648V23.1648H75.3761V23.6648H75.8761ZM82.5806 23.6648V24.1648H83.0806V23.6648H82.5806ZM82.2113 22.017L81.7641 22.2407L81.7658 22.2441L82.2113 22.017ZM81.1744 20.8736L80.9085 21.2971L80.9106 21.2983L81.1744 20.8736ZM77.8647 20.9517L78.1449 21.3658L78.1457 21.3652L77.8647 20.9517ZM76.7496 22.2301L76.3016 22.0081L76.3016 22.0081L76.7496 22.2301ZM76.7852 26.9815L76.3372 27.2037L76.3394 27.2081L76.7852 26.9815ZM77.9854 28.2812L77.7335 28.7131L77.7365 28.7149L77.9854 28.2812ZM80.9613 28.5369L81.1251 29.0094L81.1287 29.0081L80.9613 28.5369ZM81.8917 27.9688L82.2387 28.3288L82.242 28.3255L81.8917 27.9688ZM82.4954 27.017L82.6305 26.5357L82.1884 26.4116L82.0272 26.8415L82.4954 27.017ZM84.1147 27.4716L84.5922 27.6198L84.7445 27.1291L84.2498 26.9902L84.1147 27.4716ZM83.2553 28.9205L83.613 29.2699L83.615 29.2678L83.2553 28.9205ZM81.7638 29.8864L81.9431 30.3531L81.9463 30.3519L81.7638 29.8864ZM79.7681 29.7273C78.7922 29.7273 77.9789 29.5126 77.3079 29.1042L76.788 29.9583C77.6416 30.478 78.6418 30.7273 79.7681 30.7273V29.7273ZM77.311 29.1061C76.6373 28.6892 76.115 28.1085 75.7424 27.3505L74.845 27.7916C75.2962 28.7097 75.9435 29.4358 76.7849 29.9564L77.311 29.1061ZM75.7439 27.3535C75.3752 26.5904 75.1829 25.6872 75.1829 24.6307H74.1829C74.1829 25.809 74.3978 26.866 74.8435 27.7885L75.7439 27.3535ZM75.1829 24.6307C75.1829 23.5743 75.3752 22.6654 75.7448 21.8917L74.8425 21.4606C74.3978 22.3914 74.1829 23.4522 74.1829 24.6307H75.1829ZM75.7443 21.8927C76.1202 21.1109 76.6346 20.5163 77.2854 20.0922L76.7395 19.2544C75.9224 19.7868 75.2911 20.5274 74.843 21.4595L75.7443 21.8927ZM77.2861 20.0918C77.9341 19.6681 78.6983 19.4489 79.5977 19.4489V18.4489C78.5273 18.4489 77.568 18.7126 76.7388 19.2548L77.2861 20.0918ZM79.5977 19.4489C80.1091 19.4489 80.6156 19.5339 81.1191 19.7061L81.4426 18.7598C80.8382 18.5532 80.2225 18.4489 79.5977 18.4489V19.4489ZM81.1191 19.7061C81.6018 19.8711 82.0455 20.1402 82.4517 20.521L83.1357 19.7915C82.6328 19.32 82.0679 18.9736 81.4426 18.7598L81.1191 19.7061ZM82.4537 20.5229C82.8424 20.8833 83.1662 21.3736 83.4141 22.0132L84.3465 21.6516C84.0547 20.8991 83.654 20.2721 83.1336 19.7896L82.4537 20.5229ZM83.4141 22.0131C83.6552 22.6347 83.7852 23.4262 83.7852 24.4034H84.7852C84.7852 23.3446 84.6453 22.4221 84.3465 21.6516L83.4141 22.0131ZM83.7852 24.4034V25.1136H84.7852V24.4034H83.7852ZM84.2852 24.6136H75.8761V25.6136H84.2852V24.6136ZM76.3761 25.1136V23.6648H75.3761V25.1136H76.3761ZM75.8761 24.1648H82.5806V23.1648H75.8761V24.1648ZM83.0806 23.6648C83.0806 22.9811 82.9434 22.3522 82.6567 21.79L81.7658 22.2441C81.9716 22.6478 82.0806 23.1174 82.0806 23.6648H83.0806ZM82.6585 21.7934C82.3765 21.2295 81.9682 20.778 81.4382 20.4488L80.9106 21.2983C81.2802 21.5279 81.5631 21.8387 81.7641 22.2407L82.6585 21.7934ZM81.4402 20.4501C80.9038 20.1135 80.283 19.9545 79.5977 19.9545V20.9545C80.1244 20.9545 80.5547 21.075 80.9086 21.2971L81.4402 20.4501ZM79.5977 19.9545C78.8435 19.9545 78.1649 20.1431 77.5837 20.5382L78.1457 21.3652C78.5399 21.0974 79.0166 20.9545 79.5977 20.9545V19.9545ZM77.5845 20.5376C77.0295 20.913 76.6002 21.4055 76.3016 22.0081L77.1977 22.4521C77.4199 22.0035 77.734 21.6438 78.1449 21.3658L77.5845 20.5376ZM76.3016 22.0081C76.0061 22.6045 75.859 23.2441 75.859 23.9205H76.859C76.859 23.3941 76.9723 22.9069 77.1977 22.4521L76.3016 22.0081ZM75.859 23.9205V24.8864H76.859V23.9205H75.859ZM75.859 24.8864C75.859 25.7658 76.0105 26.5447 76.3372 27.2037L77.2331 26.7594C76.9917 26.2725 76.859 25.6546 76.859 24.8864H75.859ZM76.3394 27.2081C76.6683 27.8551 77.1328 28.3627 77.7335 28.7131L78.2374 27.8494C77.8154 27.6032 77.4797 27.2444 77.2309 26.755L76.3394 27.2081ZM77.7365 28.7149C78.3343 29.058 79.0168 29.2216 79.7681 29.2216V28.2216C79.1652 28.2216 78.6594 28.0916 78.2344 27.8476L77.7365 28.7149ZM79.7681 29.2216C80.2548 29.2216 80.7091 29.1535 81.1251 29.0093L80.7975 28.0645C80.5032 28.1665 80.1621 28.2216 79.7681 28.2216V29.2216ZM81.1287 29.0081C81.5518 28.8578 81.9241 28.6319 82.2386 28.3288L81.5447 27.6087C81.3384 27.8075 81.0905 27.9604 80.7939 28.0658L81.1287 29.0081ZM82.242 28.3255C82.5598 28.0135 82.7987 27.6322 82.9635 27.1926L82.0272 26.8415C81.908 27.1595 81.7444 27.4127 81.5414 27.612L82.242 28.3255ZM82.3603 27.4984L83.9796 27.953L84.2498 26.9902L82.6305 26.5357L82.3603 27.4984ZM83.6372 27.3234C83.4901 27.7974 83.2442 28.2122 82.8957 28.5731L83.615 29.2678C84.0713 28.7953 84.3984 28.2443 84.5922 27.6198L83.6372 27.3234ZM82.8977 28.571C82.5497 28.9273 82.1142 29.212 81.5814 29.4209L81.9463 30.3519C82.5972 30.0967 83.1561 29.7375 83.613 29.2699L82.8977 28.571ZM81.5846 29.4196C81.0586 29.6216 80.4554 29.7273 79.7681 29.7273V30.7273C80.5581 30.7273 81.2854 30.6057 81.9431 30.3531L81.5846 29.4196ZM86.8224 34.0199L86.9265 33.5307L86.9165 33.5288L86.8224 34.0199ZM86.3608 33.892L85.8804 33.7535L85.7651 34.1532L86.1372 34.3393L86.3608 33.892ZM86.7869 32.4148L86.9108 31.9304L86.441 31.8102L86.3065 32.2762L86.7869 32.4148ZM87.8665 32.5284L87.8212 32.0305L87.8212 32.0305L87.8665 32.5284ZM88.6974 32.1094L88.3438 31.7558L88.3372 31.7627L88.6974 32.1094ZM89.3722 30.9091L89.8415 31.0816L89.8416 31.0812L89.3722 30.9091ZM89.6847 30.0568L90.1541 30.2289L90.2173 30.0565L90.1539 29.8842L89.6847 30.0568ZM85.6506 19.0909V18.5909H84.9339L85.1813 19.2635L85.6506 19.0909ZM87.4688 19.0909L87.9412 18.9272L87.8247 18.5909H87.4688V19.0909ZM90.4801 27.7841L90.0077 27.9478L90.1242 28.2841H90.4801V27.7841ZM90.5938 27.7841V28.2841H90.9497L91.0662 27.9478L90.5938 27.7841ZM93.6051 19.0909V18.5909H93.2492L93.1327 18.9272L93.6051 19.0909ZM95.4233 19.0909L95.8922 19.2646L96.1417 18.5909H95.4233V19.0909ZM90.7926 31.5909L90.3238 31.4172L90.3236 31.4175L90.7926 31.5909ZM90.0185 32.9901L89.6343 32.67L89.6324 32.6724L90.0185 32.9901ZM88.946 33.821L88.7439 33.3637L88.742 33.3646L88.946 33.821ZM87.5824 33.5909C87.325 33.5909 87.1076 33.5694 86.9265 33.5308L86.7184 34.5089C86.9823 34.5651 87.2716 34.5909 87.5824 34.5909V33.5909ZM86.9165 33.5288C86.8135 33.5091 86.7334 33.4907 86.6736 33.4741C86.6439 33.4659 86.6216 33.4588 86.6055 33.453C86.5888 33.4471 86.5828 33.444 86.5844 33.4448L86.1372 34.3393C86.2903 34.4158 86.5056 34.4683 86.7284 34.511L86.9165 33.5288ZM86.8412 34.0306L87.2673 32.5534L86.3065 32.2762L85.8804 33.7535L86.8412 34.0306ZM86.663 32.8992C87.1079 33.013 87.5269 33.0613 87.9117 33.0264L87.8212 32.0305C87.5811 32.0523 87.2804 32.0249 86.9108 31.9304L86.663 32.8992ZM87.9117 33.0264C88.3574 32.9858 88.7427 32.7835 89.0577 32.4561L88.3372 31.7627C88.1692 31.9372 88.0005 32.0142 87.8212 32.0305L87.9117 33.0264ZM89.051 32.4629C89.3723 32.1416 89.6279 31.6626 89.8415 31.0816L88.9029 30.7366C88.7092 31.2635 88.515 31.5847 88.3439 31.7558L89.051 32.4629ZM89.8416 31.0812L90.1541 30.2289L89.2152 29.8847L88.9027 30.737L89.8416 31.0812ZM90.1539 29.8842L86.1198 18.9183L85.1813 19.2635L89.2154 30.2294L90.1539 29.8842ZM85.6506 19.5909H87.4688V18.5909H85.6506V19.5909ZM86.9963 19.2546L90.0077 27.9478L90.9526 27.6204L87.9412 18.9272L86.9963 19.2546ZM90.4801 28.2841H90.5938V27.2841H90.4801V28.2841ZM91.0662 27.9478L94.0776 19.2546L93.1327 18.9272L90.1213 27.6204L91.0662 27.9478ZM93.6051 19.5909H95.4233V18.5909H93.6051V19.5909ZM94.9544 18.9172L90.3238 31.4172L91.2615 31.7646L95.8922 19.2646L94.9544 18.9172ZM90.3236 31.4175C90.1303 31.9404 89.8979 32.3537 89.6344 32.67L90.4026 33.3101C90.7546 32.8878 91.0382 32.3684 91.2616 31.7643L90.3236 31.4175ZM89.6324 32.6724C89.3697 32.9916 89.0736 33.218 88.7439 33.3637L89.1481 34.2784C89.6328 34.0642 90.0517 33.7367 90.4046 33.3077L89.6324 32.6724ZM88.742 33.3646C88.4126 33.5118 88.0291 33.5909 87.5824 33.5909V34.5909C88.1489 34.5909 88.6745 34.4901 89.1501 34.2775L88.742 33.3646ZM97.6357 34.0909H97.1357V34.5909H97.6357V34.0909ZM97.6357 19.0909V18.5909H97.1357V19.0909H97.6357ZM99.255 19.0909H99.755V18.5909H99.255V19.0909ZM99.255 20.8239H98.755V21.3239H99.255V20.8239ZM99.4538 20.8239V21.3239H99.7252L99.8731 21.0964L99.4538 20.8239ZM99.9652 20.0994L99.5644 19.8004L99.5636 19.8015L99.9652 20.0994ZM100.917 19.304L101.162 19.7396L101.164 19.7387L100.917 19.304ZM105.036 19.6378L105.31 19.2196L105.31 19.2196L105.036 19.6378ZM106.677 21.5909L107.13 21.3796L107.13 21.3796L106.677 21.5909ZM106.677 27.5781L107.13 27.7894L107.13 27.7885L106.677 27.5781ZM105.043 29.5384L105.319 29.9557L105.321 29.9544L105.043 29.5384ZM100.952 29.8793L100.708 30.3152L100.711 30.3173L100.952 29.8793ZM99.9794 29.0767L99.5794 29.3767L99.5817 29.3797L99.9794 29.0767ZM99.4538 28.3239L99.879 28.0607L99.7324 27.8239H99.4538V28.3239ZM99.3118 28.3239V27.8239H98.8118V28.3239H99.3118ZM99.3118 34.0909V34.5909H99.8118V34.0909H99.3118ZM99.6456 26.7259L99.1787 26.9049L99.1792 26.9061L99.6456 26.7259ZM100.704 28.196L100.4 28.5931L100.403 28.595L100.704 28.196ZM104.163 28.1676L104.472 28.5604L104.473 28.56L104.163 28.1676ZM105.228 26.6619L104.761 26.4841L104.76 26.486L105.228 26.6619ZM105.235 22.4716L104.767 22.6468L104.768 22.6511L105.235 22.4716ZM104.177 21.0014L103.87 21.3961L103.874 21.3995L104.177 21.0014ZM100.69 20.973L100.986 21.376L100.988 21.374L100.69 20.973ZM99.6385 22.4077L100.105 22.5884L100.105 22.5872L99.6385 22.4077ZM98.1357 34.0909V19.0909H97.1357V34.0909H98.1357ZM97.6357 19.5909H99.255V18.5909H97.6357V19.5909ZM98.755 19.0909V20.8239H99.755V19.0909H98.755ZM99.255 21.3239H99.4538V20.3239H99.255V21.3239ZM99.8731 21.0964C99.9882 20.9192 100.152 20.687 100.367 20.3974L99.5636 19.8015C99.3429 20.099 99.1657 20.3497 99.0346 20.5514L99.8731 21.0964ZM100.366 20.3984C100.537 20.1689 100.795 19.9463 101.162 19.7396L100.672 18.8683C100.215 19.1256 99.8383 19.4333 99.5644 19.8004L100.366 20.3984ZM101.164 19.7387C101.478 19.5605 101.945 19.4489 102.607 19.4489V18.4489C101.849 18.4489 101.19 18.574 100.67 18.8692L101.164 19.7387ZM102.607 19.4489C103.438 19.4489 104.151 19.6552 104.762 20.056L105.31 19.2196C104.52 18.7018 103.613 18.4489 102.607 18.4489V19.4489ZM104.762 20.056C105.377 20.4588 105.866 21.0341 106.224 21.8022L107.13 21.3796C106.702 20.4621 106.097 19.7353 105.31 19.2196L104.762 20.056ZM106.224 21.8022C106.58 22.5653 106.766 23.4845 106.766 24.5739H107.766C107.766 23.3716 107.56 22.3021 107.13 21.3796L106.224 21.8022ZM106.766 24.5739C106.766 25.6733 106.579 26.5998 106.223 27.3678L107.13 27.7885C107.56 26.8613 107.766 25.785 107.766 24.5739H106.766ZM106.224 27.3668C105.865 28.1361 105.377 28.7147 104.766 29.1223L105.321 29.9544C106.101 29.434 106.703 28.7058 107.13 27.7894L106.224 27.3668ZM104.768 29.121C104.161 29.5215 103.456 29.7273 102.636 29.7273V30.7273C103.633 30.7273 104.534 30.4737 105.319 29.9557L104.768 29.121ZM102.636 29.7273C101.983 29.7273 101.515 29.6182 101.194 29.4413L100.711 30.3173C101.233 30.6043 101.886 30.7273 102.636 30.7273V29.7273ZM101.197 29.4433C100.819 29.2308 100.553 29.0045 100.377 28.7737L99.5817 29.3797C99.8604 29.7455 100.243 30.0543 100.708 30.3152L101.197 29.4433ZM100.379 28.7767C100.156 28.4793 99.991 28.2416 99.879 28.0607L99.0287 28.587C99.1629 28.8038 99.3479 29.0681 99.5794 29.3767L100.379 28.7767ZM99.4538 27.8239H99.3118V28.8239H99.4538V27.8239ZM98.8118 28.3239V34.0909H99.8118V28.3239H98.8118ZM99.3118 33.5909H97.6357V34.5909H99.3118V33.5909ZM98.7834 24.5455C98.7834 25.4174 98.9111 26.2069 99.1787 26.9049L100.112 26.5468C99.8971 25.9853 99.7834 25.3213 99.7834 24.5455H98.7834ZM99.1792 26.9061C99.4489 27.6041 99.8526 28.1742 100.4 28.5931L101.008 27.799C100.627 27.5076 100.325 27.0976 100.112 26.5457L99.1792 26.9061ZM100.403 28.595C100.966 29.0209 101.645 29.2216 102.408 29.2216V28.2216C101.827 28.2216 101.369 28.0719 101.005 27.797L100.403 28.595ZM102.408 29.2216C103.201 29.2216 103.9 29.0108 104.472 28.5604L103.853 27.7749C103.487 28.0631 103.017 28.2216 102.408 28.2216V29.2216ZM104.473 28.56C105.025 28.1232 105.431 27.5427 105.696 26.8379L104.76 26.486C104.551 27.0406 104.247 27.4639 103.853 27.7753L104.473 28.56ZM105.695 26.8398C105.961 26.141 106.09 25.3741 106.09 24.5455H105.09C105.09 25.2698 104.978 25.914 104.761 26.4841L105.695 26.8398ZM106.09 24.5455C106.09 23.7269 105.964 22.9734 105.702 22.2921L104.768 22.6511C104.98 23.2008 105.09 23.8299 105.09 24.5455H106.09ZM105.703 22.2964C105.442 21.5981 105.036 21.0267 104.479 20.6033L103.874 21.3995C104.264 21.6958 104.564 22.1046 104.767 22.6468L105.703 22.2964ZM104.484 20.6067C103.911 20.1612 103.207 19.9545 102.408 19.9545V20.9545C103.03 20.9545 103.505 21.1124 103.87 21.3961L104.484 20.6067ZM102.408 19.9545C101.639 19.9545 100.956 20.1512 100.391 20.572L100.988 21.374C101.351 21.1036 101.814 20.9545 102.408 20.9545V19.9545ZM100.394 20.5701C99.8418 20.9755 99.4378 21.5367 99.1718 22.2282L100.105 22.5872C100.313 22.0476 100.609 21.6523 100.986 21.376L100.394 20.5701ZM99.1723 22.227C98.9085 22.9075 98.7834 23.6838 98.7834 24.5455H99.7834C99.7834 23.7784 99.895 23.1294 100.105 22.5884L99.1723 22.227ZM111.812 15.4545H112.312V14.9545H111.812V15.4545ZM111.812 30V30.5H112.312V30H111.812ZM110.05 30H109.55V30.5H110.05V30ZM110.05 15.4545V14.9545H109.55V15.4545H110.05ZM111.312 15.4545V30H112.312V15.4545H111.312ZM111.812 29.5H110.05V30.5H111.812V29.5ZM110.55 30V15.4545H109.55V30H110.55ZM110.05 15.9545H111.812V14.9545H110.05V15.9545ZM116.792 30V30.5H117.292V30H116.792ZM115.116 30H114.616V30.5H115.116V30ZM115.116 19.0909V18.5909H114.616V19.0909H115.116ZM116.735 19.0909H117.235V18.5909H116.735V19.0909ZM116.735 20.7955H116.235V21.2955H116.735V20.7955ZM116.877 20.7955V21.2955H117.197L117.331 21.005L116.877 20.7955ZM118.042 19.4602L118.313 19.8803L118.316 19.8786L118.042 19.4602ZM121.998 19.4034L121.758 19.8421L121.761 19.8436L121.998 19.4034ZM123.291 20.767L122.844 20.992L122.845 20.9934L123.291 20.767ZM123.752 30V30.5H124.252V30H123.752ZM122.076 30H121.576V30.5H122.076V30ZM121.409 21.179L121.041 21.5178L121.043 21.5196L121.409 21.179ZM118.142 20.8026L117.901 20.3645L117.898 20.3657L118.142 20.8026ZM117.154 21.8182L116.715 21.5797L116.715 21.5797L117.154 21.8182ZM116.292 23.4375V30H117.292V23.4375H116.292ZM116.792 29.5H115.116V30.5H116.792V29.5ZM115.616 30V19.0909H114.616V30H115.616ZM115.116 19.5909H116.735V18.5909H115.116V19.5909ZM116.235 19.0909V20.7955H117.235V19.0909H116.235ZM116.735 21.2955H116.877V20.2955H116.735V21.2955ZM117.331 21.005C117.547 20.5386 117.871 20.1659 118.313 19.8803L117.771 19.0401C117.172 19.4269 116.72 19.9444 116.424 20.5859L117.331 21.005ZM118.316 19.8786C118.733 19.6056 119.302 19.4489 120.059 19.4489V18.4489C119.169 18.4489 118.393 18.633 117.768 19.0419L118.316 19.8786ZM120.059 19.4489C120.728 19.4489 121.289 19.5856 121.758 19.8421L122.238 18.9647C121.599 18.6151 120.868 18.4489 120.059 18.4489V19.4489ZM121.761 19.8436C122.217 20.0891 122.578 20.4644 122.844 20.992L123.737 20.5421C123.388 19.8481 122.887 19.3143 122.235 18.9632L121.761 19.8436ZM122.845 20.9934C123.107 21.5085 123.252 22.1915 123.252 23.0682H124.252C124.252 22.0888 124.091 21.2377 123.737 20.5407L122.845 20.9934ZM123.252 23.0682V30H124.252V23.0682H123.252ZM123.752 29.5H122.076V30.5H123.752V29.5ZM122.576 30V23.1818H121.576V30H122.576ZM122.576 23.1818C122.576 22.2389 122.33 21.435 121.775 20.8383L121.043 21.5196C121.378 21.8794 121.576 22.4107 121.576 23.1818H122.576ZM121.776 20.8401C121.219 20.2357 120.465 19.9545 119.576 19.9545V20.9545C120.241 20.9545 120.708 21.1564 121.041 21.5178L121.776 20.8401ZM119.576 19.9545C118.967 19.9545 118.404 20.0875 117.901 20.3646L118.383 21.2406C118.722 21.0536 119.116 20.9545 119.576 20.9545V19.9545ZM117.898 20.3657C117.394 20.6468 116.999 21.0566 116.715 21.5797L117.594 22.0566C117.793 21.6896 118.056 21.4223 118.385 21.2394L117.898 20.3657ZM116.715 21.5797C116.425 22.1143 116.292 22.7404 116.292 23.4375H117.292C117.292 22.8656 117.401 22.4122 117.594 22.0566L116.715 21.5797ZM135.345 19.0909L135.814 19.2643L136.063 18.5909H135.345V19.0909ZM131.311 30V30.5H131.659L131.78 30.1734L131.311 30ZM129.607 30L129.138 30.1734L129.258 30.5H129.607V30ZM125.572 19.0909V18.5909H124.854L125.103 19.2643L125.572 19.0909ZM127.391 19.0909L127.863 18.9272L127.747 18.5909H127.391V19.0909ZM130.402 27.7841L129.93 27.9478L130.046 28.2841H130.402V27.7841ZM130.516 27.7841V28.2841H130.872L130.988 27.9478L130.516 27.7841ZM133.527 19.0909V18.5909H133.171L133.055 18.9272L133.527 19.0909ZM134.876 18.9175L130.842 29.8266L131.78 30.1734L135.814 19.2643L134.876 18.9175ZM131.311 29.5H129.607V30.5H131.311V29.5ZM130.075 29.8266L126.041 18.9175L125.103 19.2643L129.138 30.1734L130.075 29.8266ZM125.572 19.5909H127.391V18.5909H125.572V19.5909ZM126.918 19.2546L129.93 27.9478L130.874 27.6204L127.863 18.9272L126.918 19.2546ZM130.402 28.2841H130.516V27.2841H130.402V28.2841ZM130.988 27.9478L133.999 19.2546L133.055 18.9272L130.043 27.6204L130.988 27.9478ZM133.527 19.5909H135.345V18.5909H133.527V19.5909ZM139.021 29.5312L138.758 29.9565L138.761 29.9583L139.021 29.5312ZM137.266 27.571L136.816 27.7885L136.818 27.7916L137.266 27.571ZM137.266 21.6761L136.816 21.4595L136.815 21.4606L137.266 21.6761ZM138.985 19.6733L139.258 20.0922L139.259 20.0918L138.985 19.6733ZM143.254 19.233L143.415 18.7598L143.415 18.7598L143.254 19.233ZM144.766 20.1562L144.424 20.521L144.426 20.5229L144.766 20.1562ZM145.853 21.8324L146.319 21.6516L146.319 21.6516L145.853 21.8324ZM146.258 25.1136V25.6136H146.758V25.1136H146.258ZM137.849 25.1136H137.349V25.6136H137.849V25.1136ZM137.849 23.6648V23.1648H137.349V23.6648H137.849ZM144.553 23.6648V24.1648H145.053V23.6648H144.553ZM144.184 22.017L143.737 22.2407L143.738 22.2441L144.184 22.017ZM143.147 20.8736L142.881 21.2971L142.883 21.2983L143.147 20.8736ZM139.837 20.9517L140.118 21.3658L140.118 21.3652L139.837 20.9517ZM138.722 22.2301L138.274 22.0081L138.274 22.0081L138.722 22.2301ZM138.758 26.9815L138.31 27.2037L138.312 27.2081L138.758 26.9815ZM139.958 28.2812L139.706 28.7131L139.709 28.7149L139.958 28.2812ZM142.934 28.5369L143.098 29.0094L143.101 29.0081L142.934 28.5369ZM143.864 27.9688L144.211 28.3288L144.215 28.3255L143.864 27.9688ZM144.468 27.017L144.603 26.5357L144.161 26.4116L144 26.8415L144.468 27.017ZM146.087 27.4716L146.565 27.6198L146.717 27.1291L146.222 26.9902L146.087 27.4716ZM145.228 28.9205L145.586 29.2699L145.588 29.2678L145.228 28.9205ZM143.737 29.8864L143.916 30.3531L143.919 30.3519L143.737 29.8864ZM141.741 29.7273C140.765 29.7273 139.952 29.5126 139.281 29.1042L138.761 29.9583C139.614 30.478 140.614 30.7273 141.741 30.7273V29.7273ZM139.284 29.1061C138.61 28.6892 138.088 28.1085 137.715 27.3505L136.818 27.7916C137.269 28.7097 137.916 29.4358 138.758 29.9564L139.284 29.1061ZM137.717 27.3535C137.348 26.5904 137.156 25.6872 137.156 24.6307H136.156C136.156 25.809 136.37 26.866 136.816 27.7885L137.717 27.3535ZM137.156 24.6307C137.156 23.5743 137.348 22.6654 137.717 21.8917L136.815 21.4606C136.37 22.3914 136.156 23.4522 136.156 24.6307H137.156ZM137.717 21.8927C138.093 21.1109 138.607 20.5163 139.258 20.0922L138.712 19.2544C137.895 19.7868 137.264 20.5274 136.816 21.4595L137.717 21.8927ZM139.259 20.0918C139.907 19.6681 140.671 19.4489 141.57 19.4489V18.4489C140.5 18.4489 139.541 18.7126 138.711 19.2548L139.259 20.0918ZM141.57 19.4489C142.082 19.4489 142.588 19.5339 143.092 19.7061L143.415 18.7598C142.811 18.5532 142.195 18.4489 141.57 18.4489V19.4489ZM143.092 19.7061C143.574 19.8711 144.018 20.1402 144.424 20.521L145.108 19.7915C144.605 19.32 144.041 18.9736 143.415 18.7598L143.092 19.7061ZM144.426 20.5229C144.815 20.8833 145.139 21.3736 145.387 22.0132L146.319 21.6516C146.027 20.8991 145.627 20.2721 145.106 19.7896L144.426 20.5229ZM145.387 22.0131C145.628 22.6347 145.758 23.4262 145.758 24.4034H146.758C146.758 23.3446 146.618 22.4221 146.319 21.6516L145.387 22.0131ZM145.758 24.4034V25.1136H146.758V24.4034H145.758ZM146.258 24.6136H137.849V25.6136H146.258V24.6136ZM138.349 25.1136V23.6648H137.349V25.1136H138.349ZM137.849 24.1648H144.553V23.1648H137.849V24.1648ZM145.053 23.6648C145.053 22.9811 144.916 22.3522 144.629 21.79L143.738 22.2441C143.944 22.6478 144.053 23.1174 144.053 23.6648H145.053ZM144.631 21.7934C144.349 21.2295 143.941 20.778 143.411 20.4488L142.883 21.2983C143.253 21.5279 143.536 21.8387 143.737 22.2407L144.631 21.7934ZM143.413 20.4501C142.876 20.1135 142.256 19.9545 141.57 19.9545V20.9545C142.097 20.9545 142.527 21.075 142.881 21.2971L143.413 20.4501ZM141.57 19.9545C140.816 19.9545 140.138 20.1431 139.556 20.5382L140.118 21.3652C140.513 21.0974 140.989 20.9545 141.57 20.9545V19.9545ZM139.557 20.5376C139.002 20.913 138.573 21.4055 138.274 22.0081L139.17 22.4521C139.393 22.0035 139.707 21.6438 140.118 21.3658L139.557 20.5376ZM138.274 22.0081C137.979 22.6045 137.832 23.2441 137.832 23.9205H138.832C138.832 23.3941 138.945 22.9069 139.17 22.4521L138.274 22.0081ZM137.832 23.9205V24.8864H138.832V23.9205H137.832ZM137.832 24.8864C137.832 25.7658 137.983 26.5447 138.31 27.2037L139.206 26.7594C138.964 26.2725 138.832 25.6546 138.832 24.8864H137.832ZM138.312 27.2081C138.641 27.8551 139.105 28.3627 139.706 28.7131L140.21 27.8494C139.788 27.6032 139.452 27.2444 139.204 26.755L138.312 27.2081ZM139.709 28.7149C140.307 29.058 140.989 29.2216 141.741 29.2216V28.2216C141.138 28.2216 140.632 28.0916 140.207 27.8476L139.709 28.7149ZM141.741 29.2216C142.228 29.2216 142.682 29.1535 143.098 29.0093L142.77 28.0645C142.476 28.1665 142.135 28.2216 141.741 28.2216V29.2216ZM143.101 29.0081C143.524 28.8578 143.897 28.6319 144.211 28.3288L143.517 27.6087C143.311 27.8075 143.063 27.9604 142.767 28.0658L143.101 29.0081ZM144.215 28.3255C144.533 28.0135 144.771 27.6322 144.936 27.1926L144 26.8415C143.881 27.1595 143.717 27.4127 143.514 27.612L144.215 28.3255ZM144.333 27.4984L145.952 27.953L146.222 26.9902L144.603 26.5357L144.333 27.4984ZM145.61 27.3234C145.463 27.7974 145.217 28.2122 144.868 28.5731L145.588 29.2678C146.044 28.7953 146.371 28.2443 146.565 27.6198L145.61 27.3234ZM144.87 28.571C144.522 28.9273 144.087 29.212 143.554 29.4209L143.919 30.3519C144.57 30.0967 145.129 29.7375 145.586 29.2699L144.87 28.571ZM143.557 29.4196C143.031 29.6216 142.428 29.7273 141.741 29.7273V30.7273C142.531 30.7273 143.258 30.6057 143.916 30.3531L143.557 29.4196ZM156.535 21.5341L156.671 22.0152L157.176 21.8724L157.009 21.3751L156.535 21.5341ZM155.029 21.9602L154.561 22.1368L154.723 22.5664L155.165 22.4413L155.029 21.9602ZM154.61 21.2287L154.209 21.5275L154.216 21.5362L154.61 21.2287ZM153.871 20.6321L154.095 20.1849L154.095 20.1849L153.871 20.6321ZM151.002 20.8594L151.286 21.2713L151.287 21.2706L151.002 20.8594ZM150.796 23.0043L150.485 23.3953L150.485 23.3953L150.796 23.0043ZM152.217 23.608L152.095 24.093L152.097 24.0935L152.217 23.608ZM153.836 24.0057L153.717 24.4913L153.718 24.4916L153.836 24.0057ZM156.016 25.0923L155.659 25.4424L155.661 25.4441L156.016 25.0923ZM156.194 28.6364L155.79 28.3413L155.788 28.3439L156.194 28.6364ZM149.71 29.5028L149.986 29.086L149.986 29.086L149.71 29.5028ZM148.325 27.3864L148.203 26.9013L147.737 27.0179L147.835 27.4887L148.325 27.3864ZM149.915 26.9886L150.4 26.8637L150.276 26.3832L149.794 26.5036L149.915 26.9886ZM150.775 28.3097L150.489 28.7199L150.491 28.7214L150.775 28.3097ZM154.305 28.2528L154.597 28.6583L154.598 28.6577L154.305 28.2528ZM154.603 26.0938L154.253 26.4505L154.256 26.4537L154.603 26.0938ZM153.381 25.5114L153.267 25.9982L153.268 25.9983L153.381 25.5114ZM151.563 25.0852L151.448 25.5718L151.449 25.572L151.563 25.0852ZM149.362 23.9844L148.994 24.3238L148.998 24.3274L149.362 23.9844ZM149.184 20.4688L148.782 20.1713L148.78 20.1739L149.184 20.4688ZM150.612 19.3537L150.408 18.8969L150.407 18.8975L150.612 19.3537ZM155.214 19.6591L154.909 20.0554L154.91 20.0565L155.214 19.6591ZM156.399 21.053L154.893 21.4791L155.165 22.4413L156.671 22.0152L156.399 21.053ZM155.497 21.7837C155.382 21.4804 155.216 21.1929 155.004 20.9212L154.216 21.5362C154.373 21.7379 154.486 21.9382 154.561 22.1368L155.497 21.7837ZM155.011 20.93C154.777 20.6165 154.466 20.3705 154.095 20.1849L153.648 21.0793C153.902 21.2062 154.083 21.358 154.209 21.5274L155.011 20.93ZM154.095 20.1849C153.691 19.983 153.208 19.8977 152.671 19.8977V20.8977C153.11 20.8977 153.427 20.9687 153.648 21.0793L154.095 20.1849ZM152.671 19.8977C151.926 19.8977 151.264 20.0703 150.718 20.4481L151.287 21.2706C151.63 21.0329 152.081 20.8977 152.671 20.8977V19.8977ZM150.719 20.4475C150.165 20.8286 149.842 21.3586 149.842 22.017H150.842C150.842 21.738 150.959 21.4962 151.286 21.2713L150.719 20.4475ZM149.842 22.017C149.842 22.5728 150.053 23.051 150.485 23.3953L151.108 22.6132C150.934 22.4745 150.842 22.2947 150.842 22.017H149.842ZM150.485 23.3953C150.87 23.7024 151.425 23.9253 152.095 24.093L152.338 23.1229C151.721 22.9686 151.328 22.789 151.108 22.6132L150.485 23.3953ZM152.097 24.0935L153.717 24.4913L153.955 23.5201L152.336 23.1224L152.097 24.0935ZM153.718 24.4916C154.643 24.716 155.27 25.0458 155.659 25.4424L156.373 24.7423C155.806 24.1635 154.98 23.7689 153.954 23.5198L153.718 24.4916ZM155.661 25.4441C156.035 25.8217 156.234 26.3122 156.234 26.9602H157.234C157.234 26.0836 156.954 25.3288 156.372 24.7405L155.661 25.4441ZM156.234 26.9602C156.234 27.482 156.086 27.9368 155.79 28.3414L156.598 28.9314C157.022 28.3511 157.234 27.6885 157.234 26.9602H156.234ZM155.788 28.3439C155.492 28.7542 155.07 29.0905 154.499 29.3442L154.905 30.258C155.613 29.9436 156.185 29.5033 156.599 28.9288L155.788 28.3439ZM154.499 29.3442C153.936 29.5946 153.264 29.7273 152.472 29.7273V30.7273C153.375 30.7273 154.19 30.5759 154.905 30.258L154.499 29.3442ZM152.472 29.7273C151.431 29.7273 150.613 29.5017 149.986 29.086L149.433 29.9197C150.264 30.4699 151.288 30.7273 152.472 30.7273V29.7273ZM149.986 29.086C149.376 28.6822 148.984 28.0951 148.814 27.284L147.835 27.4887C148.054 28.5337 148.585 29.3576 149.433 29.9197L149.986 29.086ZM148.446 27.8714L150.037 27.4737L149.794 26.5036L148.203 26.9013L148.446 27.8714ZM149.431 27.1136C149.607 27.7945 149.952 28.3461 150.489 28.7199L151.061 27.8994C150.755 27.6861 150.527 27.3571 150.4 26.8637L149.431 27.1136ZM150.491 28.7214C151.024 29.0885 151.689 29.25 152.444 29.25V28.25C151.826 28.25 151.378 28.1179 151.059 27.8979L150.491 28.7214ZM152.444 29.25C153.291 29.25 154.026 29.0706 154.597 28.6583L154.012 27.8474C153.665 28.0979 153.159 28.25 152.444 28.25V29.25ZM154.598 28.6577C155.159 28.251 155.501 27.7108 155.501 27.0455H154.501C154.501 27.3176 154.378 27.5823 154.011 27.8479L154.598 28.6577ZM155.501 27.0455C155.501 26.5352 155.316 26.0867 154.95 25.7338L154.256 26.4537C154.42 26.6122 154.501 26.7981 154.501 27.0455H155.501ZM154.953 25.737C154.597 25.3871 154.091 25.1631 153.495 25.0244L153.268 25.9983C153.771 26.1153 154.079 26.2795 154.253 26.4505L154.953 25.737ZM153.495 25.0246L151.677 24.5984L151.449 25.572L153.267 25.9982L153.495 25.0246ZM151.679 24.5987C150.73 24.3739 150.101 24.0401 149.725 23.6414L148.998 24.3274C149.559 24.923 150.399 25.3231 151.448 25.5718L151.679 24.5987ZM149.729 23.6449C149.359 23.2451 149.165 22.7431 149.165 22.1023H148.165C148.165 22.9671 148.436 23.7198 148.994 24.3238L149.729 23.6449ZM149.165 22.1023C149.165 21.5871 149.308 21.147 149.588 20.7636L148.78 20.1739C148.369 20.7375 148.165 21.3864 148.165 22.1023H149.165ZM149.586 20.7662C149.879 20.3695 150.284 20.0489 150.816 19.8099L150.407 18.8975C149.737 19.1983 149.189 19.621 148.782 20.1713L149.586 20.7662ZM150.815 19.8105C151.348 19.5732 151.963 19.4489 152.671 19.4489V18.4489C151.845 18.4489 151.087 18.5944 150.408 18.8969L150.815 19.8105ZM152.671 19.4489C153.683 19.4489 154.409 19.671 154.909 20.0554L155.519 19.2628C154.787 18.7002 153.819 18.4489 152.671 18.4489V19.4489ZM154.91 20.0565C155.447 20.4663 155.83 21.0063 156.061 21.6931L157.009 21.3751C156.718 20.5088 156.221 19.7989 155.517 19.2617L154.91 20.0565ZM164.001 19.0909H164.501V18.5909H164.001V19.0909ZM164.001 20.5114V21.0114H164.501V20.5114H164.001ZM158.348 20.5114H157.848V21.0114H158.348V20.5114ZM158.348 19.0909V18.5909H157.848V19.0909H158.348ZM159.995 16.4773V15.9773H159.495V16.4773H159.995ZM161.672 16.4773H162.172V15.9773H161.672V16.4773ZM161.877 27.9403L161.445 28.1913L161.451 28.2014L161.877 27.9403ZM162.417 28.4091L162.244 28.8782L162.256 28.8824L162.417 28.4091ZM163.575 28.4943L163.654 28.988L163.663 28.9865L163.673 28.9846L163.575 28.4943ZM163.859 28.4375L164.347 28.3271L164.239 27.8516L163.761 27.9472L163.859 28.4375ZM164.2 29.9432L164.375 30.4113L164.784 30.2582L164.688 29.8328L164.2 29.9432ZM163.724 30.071L163.622 29.5815L163.611 29.584L163.724 30.071ZM161.558 29.8366L161.352 30.2922L161.353 30.293L161.558 29.8366ZM160.436 28.9062L160.027 29.1942L160.029 29.1973L160.436 28.9062ZM163.501 19.0909V20.5114H164.501V19.0909H163.501ZM164.001 20.0114H158.348V21.0114H164.001V20.0114ZM158.848 20.5114V19.0909H157.848V20.5114H158.848ZM158.348 19.5909H164.001V18.5909H158.348V19.5909ZM159.995 16.9773H161.672V15.9773H159.995V16.9773ZM161.172 16.4773V26.875H162.172V16.4773H161.172ZM161.172 26.875C161.172 27.3804 161.242 27.8411 161.445 28.1912L162.31 27.6895C162.238 27.5661 162.172 27.3165 162.172 26.875H161.172ZM161.451 28.2014C161.641 28.5121 161.903 28.7522 162.244 28.8781L162.591 27.9401C162.496 27.905 162.398 27.8326 162.304 27.6793L161.451 28.2014ZM162.256 28.8824C162.533 28.9767 162.822 29.0227 163.12 29.0227V28.0227C162.926 28.0227 162.747 27.993 162.578 27.9358L162.256 28.8824ZM163.12 29.0227C163.319 29.0227 163.499 29.0128 163.654 28.988L163.496 28.0006C163.414 28.0138 163.291 28.0227 163.12 28.0227V29.0227ZM163.673 28.9846C163.791 28.9609 163.886 28.942 163.957 28.9278L163.761 27.9472C163.69 27.9614 163.595 27.9804 163.477 28.004L163.673 28.9846ZM163.371 28.5479L163.712 30.0536L164.688 29.8328L164.347 28.3271L163.371 28.5479ZM164.024 29.475C163.945 29.5046 163.815 29.5411 163.622 29.5816L163.827 30.5604C164.04 30.5157 164.227 30.467 164.375 30.4113L164.024 29.475ZM163.611 29.584C163.458 29.6196 163.241 29.642 162.95 29.642V30.642C163.284 30.642 163.583 30.6171 163.837 30.558L163.611 29.584ZM162.95 29.642C162.551 29.642 162.156 29.5567 161.762 29.3803L161.353 30.293C161.869 30.5238 162.402 30.642 162.95 30.642V29.642ZM161.764 29.3811C161.397 29.2152 161.091 28.9632 160.842 28.6152L160.029 29.1973C160.377 29.6826 160.819 30.0509 161.352 30.2922L161.764 29.3811ZM160.844 28.6183C160.623 28.3046 160.495 27.8864 160.495 27.3295H159.495C159.495 28.0417 159.661 28.6746 160.027 29.1942L160.844 28.6183ZM160.495 27.3295V16.4773H159.495V27.3295H160.495Z" fill="#24126A"/>
</svg>
