<svg width="162" height="50" viewBox="0 0 162 50" fill="none" xmlns="http://www.w3.org/2000/svg">
<g clip-path="url(#clip0_1_27)">
<path d="M21.6 3.8C9.9 3.8 0.400002 13.4 0.400002 25.2C0.400002 37 9.9 46.6 21.6 46.6C33.3 46.6 42.8 37 42.8 25.2C42.8 13.4 33.3 3.8 21.6 3.8ZM32.6 4.6C39.8 8.6 44.7 16.3 44.7 25.1C44.7 33.9 39.8 41.7 32.6 45.6C41.6 42.9 47.8 34.6 47.8 25.1C47.8 15.7 41.6 7.3 32.6 4.6ZM21.9 8.7C23.1 8.7 24 9.6 23.9 10.8V11.4C26 11.7 27.9 12.4 29.6 13.4C30.4 13.8 31 14.6 31 15.8C31 17.3 29.8 18.5 28.3 18.5C27.8 18.5 27.3 18.4 26.9 18.1C25.8 17.5 24.7 17 23.6 16.7L23.5 22.8C29.5 24.5 32.1 27 32 31.5C32 36 28.5 38.8 23.5 39.3V41.4C23.5 42.6 22.6 43.5 21.4 43.5C20.2 43.5 19.3 42.6 19.4 41.4V39.2C16.6 38.8 13.9 37.8 11.6 36.3C10.8 35.8 10.3 35 10.3 33.9C10.3 32.3 11.5 31.2 13.1 31.2C13.6 31.2 14.2 31.4 14.6 31.7C16.3 32.8 17.8 33.6 19.7 34L19.8 27.6C14.1 26 11.3 23.7 11.4 19C11.4 14.6 14.8 11.7 19.8 11.2V10.7C19.8 9.6 20.7 8.7 21.9 8.7ZM19.9 16.3C18 16.6 17.1 17.5 17.1 18.8C17.1 20 17.6 20.9 19.8 21.7L19.9 16.3ZM23.5 28.8L23.4 34.4C25.3 34.1 26.2 33.3 26.2 31.8C26.4 30.4 25.7 29.6 23.5 28.8Z" fill="#FCFBFF"/>
<path d="M63.4659 23H61.7045C61.6004 22.4934 61.4181 22.0483 61.1577 21.6648C60.902 21.2813 60.5895 20.9593 60.2202 20.6989C59.8556 20.4337 59.4508 20.2349 59.0057 20.1023C58.5606 19.9697 58.0966 19.9034 57.6136 19.9034C56.733 19.9034 55.9351 20.126 55.2202 20.571C54.5099 21.0161 53.9441 21.6719 53.5227 22.5384C53.1061 23.4048 52.8977 24.4678 52.8977 25.7273C52.8977 26.9867 53.1061 28.0497 53.5227 28.9162C53.9441 29.7827 54.5099 30.4385 55.2202 30.8835C55.9351 31.3286 56.733 31.5511 57.6136 31.5511C58.0966 31.5511 58.5606 31.4849 59.0057 31.3523C59.4508 31.2197 59.8556 31.0232 60.2202 30.7628C60.5895 30.4976 60.902 30.1733 61.1577 29.7898C61.4181 29.4015 61.6004 28.9564 61.7045 28.4545H63.4659C63.3333 29.1979 63.0919 29.8632 62.7415 30.4503C62.3911 31.0374 61.9555 31.5369 61.4347 31.9489C60.9138 32.3561 60.3291 32.6662 59.6804 32.8793C59.0365 33.0923 58.3475 33.1989 57.6136 33.1989C56.3731 33.1989 55.2699 32.8958 54.304 32.2898C53.3381 31.6837 52.5781 30.822 52.0242 29.7045C51.4702 28.5871 51.1932 27.2614 51.1932 25.7273C51.1932 24.1932 51.4702 22.8674 52.0242 21.75C52.5781 20.6326 53.3381 19.7708 54.304 19.1648C55.2699 18.5587 56.3731 18.2557 57.6136 18.2557C58.3475 18.2557 59.0365 18.3622 59.6804 18.5753C60.3291 18.7884 60.9138 19.1009 61.4347 19.5128C61.9555 19.92 62.3911 20.4171 62.7415 21.0043C63.0919 21.5867 63.3333 22.2519 63.4659 23Z" fill="#FCFBFF"/>
<path d="M66.0849 33V22.0909H67.7042V23.7386H67.8178C68.0167 23.1989 68.3765 22.7609 68.8974 22.4247C69.4182 22.0885 70.0053 21.9205 70.6587 21.9205C70.7818 21.9205 70.9357 21.9228 71.1204 21.9276C71.305 21.9323 71.4447 21.9394 71.5394 21.9489V23.6534C71.4826 23.6392 71.3524 23.6179 71.1488 23.5895C70.9499 23.5563 70.7392 23.5398 70.5167 23.5398C69.9864 23.5398 69.5129 23.651 69.0962 23.8736C68.6843 24.0914 68.3576 24.3944 68.1161 24.7827C67.8794 25.1662 67.761 25.6042 67.761 26.0966V33H66.0849Z" fill="#FCFBFF"/>
<path d="M77.7681 33.2273C76.717 33.2273 75.8103 32.9953 75.0479 32.5313C74.2904 32.0625 73.7056 31.4091 73.2937 30.571C72.8865 29.7282 72.6829 28.7481 72.6829 27.6307C72.6829 26.5133 72.8865 25.5284 73.2937 24.6761C73.7056 23.8191 74.2785 23.1515 75.0124 22.6733C75.7511 22.1903 76.6128 21.9489 77.5977 21.9489C78.1658 21.9489 78.7269 22.0436 79.2809 22.233C79.8349 22.4224 80.3391 22.7301 80.7937 23.1563C81.2482 23.5777 81.6104 24.1364 81.8803 24.8324C82.1502 25.5284 82.2852 26.3854 82.2852 27.4034V28.1136H73.8761V26.6648H80.5806C80.5806 26.0492 80.4575 25.5 80.2113 25.017C79.9698 24.5341 79.6242 24.1529 79.1744 23.8736C78.7293 23.5942 78.2037 23.4545 77.5977 23.4545C76.93 23.4545 76.3524 23.6203 75.8647 23.9517C75.3817 24.2784 75.0101 24.7045 74.7496 25.2301C74.4892 25.7557 74.359 26.3191 74.359 26.9205V27.8864C74.359 28.7102 74.5011 29.4086 74.7852 29.9815C75.074 30.5497 75.4741 30.983 75.9854 31.2813C76.4968 31.5748 77.091 31.7216 77.7681 31.7216C78.2085 31.7216 78.6062 31.66 78.9613 31.5369C79.3211 31.4091 79.6313 31.2197 79.8917 30.9688C80.1521 30.7131 80.3533 30.3958 80.4954 30.017L82.1147 30.4716C81.9442 31.0208 81.6578 31.5038 81.2553 31.9205C80.8529 32.3324 80.3557 32.6544 79.7638 32.8864C79.172 33.1136 78.5067 33.2273 77.7681 33.2273Z" fill="#FCFBFF"/>
<path d="M85.5824 37.0909C85.2983 37.0909 85.045 37.0672 84.8224 37.0199C84.5999 36.9773 84.446 36.9347 84.3608 36.892L84.7869 35.4148C85.1941 35.5189 85.554 35.5568 85.8665 35.5284C86.179 35.5 86.456 35.3603 86.6974 35.1094C86.9437 34.8632 87.1686 34.4631 87.3722 33.9091L87.6847 33.0568L83.6506 22.0909H85.4688L88.4801 30.7841H88.5938L91.6051 22.0909H93.4233L88.7926 34.5909C88.5843 35.1544 88.3262 35.6207 88.0185 35.9901C87.7107 36.3641 87.3532 36.6411 86.946 36.821C86.5436 37.001 86.089 37.0909 85.5824 37.0909Z" fill="#FCFBFF"/>
<path d="M95.6357 37.0909V22.0909H97.255V23.8239H97.4538C97.5769 23.6345 97.7474 23.393 97.9652 23.0994C98.1877 22.8011 98.505 22.536 98.9169 22.304C99.3336 22.0672 99.897 21.9489 100.607 21.9489C101.526 21.9489 102.335 22.1785 103.036 22.6378C103.737 23.0971 104.284 23.7481 104.677 24.5909C105.07 25.4337 105.266 26.428 105.266 27.5739C105.266 28.7292 105.07 29.7306 104.677 30.5781C104.284 31.4209 103.739 32.0743 103.043 32.5384C102.347 32.9976 101.545 33.2273 100.636 33.2273C99.9349 33.2273 99.3738 33.1113 98.9524 32.8793C98.531 32.6425 98.2067 32.375 97.9794 32.0767C97.7521 31.7737 97.5769 31.5227 97.4538 31.3239H97.3118V37.0909H95.6357ZM97.2834 27.5455C97.2834 28.3693 97.4041 29.0961 97.6456 29.7259C97.8871 30.3509 98.2398 30.8409 98.7038 31.196C99.1678 31.5464 99.736 31.7216 100.408 31.7216C101.109 31.7216 101.694 31.5369 102.163 31.1676C102.636 30.7936 102.991 30.2917 103.228 29.6619C103.469 29.0275 103.59 28.322 103.59 27.5455C103.59 26.7784 103.472 26.0871 103.235 25.4716C103.003 24.8513 102.65 24.3613 102.177 24.0014C101.708 23.6368 101.119 23.4545 100.408 23.4545C99.7266 23.4545 99.1536 23.6274 98.6896 23.973C98.2256 24.3139 97.8752 24.7921 97.6385 25.4077C97.4018 26.0185 97.2834 26.7311 97.2834 27.5455Z" fill="#FCFBFF"/>
<path d="M109.812 18.4545V33H108.05V18.4545H109.812Z" fill="#FCFBFF"/>
<path d="M114.792 26.4375V33H113.116V22.0909H114.735V23.7955H114.877C115.133 23.2415 115.521 22.7964 116.042 22.4602C116.563 22.1193 117.235 21.9489 118.059 21.9489C118.798 21.9489 119.444 22.1004 119.998 22.4034C120.552 22.7017 120.983 23.1563 121.291 23.767C121.599 24.3731 121.752 25.1402 121.752 26.0682V33H120.076V26.1818C120.076 25.3248 119.854 24.6572 119.409 24.179C118.964 23.696 118.353 23.4545 117.576 23.4545C117.041 23.4545 116.563 23.5706 116.142 23.8026C115.725 24.0346 115.396 24.3731 115.154 24.8182C114.913 25.2633 114.792 25.803 114.792 26.4375Z" fill="#FCFBFF"/>
<path d="M133.345 22.0909L129.311 33H127.607L123.572 22.0909H125.391L128.402 30.7841H128.516L131.527 22.0909H133.345Z" fill="#FCFBFF"/>
<path d="M139.741 33.2273C138.69 33.2273 137.783 32.9953 137.021 32.5313C136.263 32.0625 135.678 31.4091 135.266 30.571C134.859 29.7282 134.656 28.7481 134.656 27.6307C134.656 26.5133 134.859 25.5284 135.266 24.6761C135.678 23.8191 136.251 23.1515 136.985 22.6733C137.724 22.1903 138.585 21.9489 139.57 21.9489C140.139 21.9489 140.7 22.0436 141.254 22.233C141.808 22.4224 142.312 22.7301 142.766 23.1563C143.221 23.5777 143.583 24.1364 143.853 24.8324C144.123 25.5284 144.258 26.3854 144.258 27.4034V28.1136H135.849V26.6648H142.553C142.553 26.0492 142.43 25.5 142.184 25.017C141.942 24.5341 141.597 24.1529 141.147 23.8736C140.702 23.5942 140.176 23.4545 139.57 23.4545C138.903 23.4545 138.325 23.6203 137.837 23.9517C137.354 24.2784 136.983 24.7045 136.722 25.2301C136.462 25.7557 136.332 26.3191 136.332 26.9205V27.8864C136.332 28.7102 136.474 29.4086 136.758 29.9815C137.047 30.5497 137.447 30.983 137.958 31.2813C138.469 31.5748 139.064 31.7216 139.741 31.7216C140.181 31.7216 140.579 31.66 140.934 31.5369C141.294 31.4091 141.604 31.2197 141.864 30.9688C142.125 30.7131 142.326 30.3958 142.468 30.017L144.087 30.4716C143.917 31.0208 143.63 31.5038 143.228 31.9205C142.826 32.3324 142.328 32.6544 141.737 32.8864C141.145 33.1136 140.479 33.2273 139.741 33.2273Z" fill="#FCFBFF"/>
<path d="M154.535 24.5341L153.029 24.9602C152.934 24.7093 152.795 24.4654 152.61 24.2287C152.43 23.9872 152.184 23.7884 151.871 23.6321C151.559 23.4759 151.159 23.3977 150.671 23.3977C150.004 23.3977 149.447 23.5516 149.002 23.8594C148.562 24.1624 148.342 24.5483 148.342 25.017C148.342 25.4337 148.493 25.7628 148.796 26.0043C149.099 26.2457 149.573 26.447 150.217 26.608L151.836 27.0057C152.811 27.2424 153.538 27.6046 154.016 28.0923C154.495 28.5753 154.734 29.1979 154.734 29.9602C154.734 30.5852 154.554 31.1439 154.194 31.6364C153.839 32.1288 153.342 32.517 152.702 32.8011C152.063 33.0852 151.32 33.2273 150.472 33.2273C149.36 33.2273 148.439 32.9858 147.71 32.5028C146.98 32.0199 146.519 31.3144 146.325 30.3864L147.915 29.9886C148.067 30.5758 148.353 31.0161 148.775 31.3097C149.201 31.6032 149.757 31.75 150.444 31.75C151.225 31.75 151.845 31.5843 152.305 31.2528C152.769 30.9167 153.001 30.5142 153.001 30.0455C153.001 29.6667 152.868 29.3494 152.603 29.0938C152.338 28.8333 151.931 28.6392 151.381 28.5114L149.563 28.0852C148.564 27.8485 147.83 27.4815 147.362 26.9844C146.897 26.4825 146.665 25.8551 146.665 25.1023C146.665 24.4867 146.838 23.9422 147.184 23.4688C147.534 22.9953 148.01 22.6236 148.612 22.3537C149.218 22.0838 149.904 21.9489 150.671 21.9489C151.751 21.9489 152.598 22.1856 153.214 22.6591C153.834 23.1326 154.274 23.7576 154.535 24.5341Z" fill="#FCFBFF"/>
<path d="M162.001 22.0909V23.5114H156.348V22.0909H162.001ZM157.995 19.4773H159.672V29.875C159.672 30.3485 159.74 30.7036 159.877 30.9403C160.02 31.1724 160.199 31.3286 160.417 31.4091C160.64 31.4849 160.874 31.5227 161.12 31.5227C161.305 31.5227 161.457 31.5133 161.575 31.4943C161.693 31.4706 161.788 31.4517 161.859 31.4375L162.2 32.9432C162.086 32.9858 161.928 33.0284 161.724 33.071C161.52 33.1184 161.262 33.142 160.95 33.142C160.476 33.142 160.012 33.0402 159.558 32.8367C159.108 32.6331 158.734 32.3229 158.436 31.9063C158.142 31.4896 157.995 30.964 157.995 30.3295V19.4773Z" fill="#FCFBFF"/>
</g>
<defs>
<clipPath id="clip0_1_27">
<rect width="162" height="50" fill="white"/>
</clipPath>
</defs>
</svg>
