<?xml version="1.0" encoding="utf-8"?>
<!-- Generator: Adobe Illustrator 23.0.3, SVG Export Plug-In . SVG Version: 6.00 Build 0)  -->
<svg version="1.1" id="logosvg.com" xmlns="http://www.w3.org/2000/svg" xmlns:xlink="http://www.w3.org/1999/xlink" x="0px"
	 y="0px" viewBox="0 0 400 300" style="enable-background:new 0 0 400 300;" xml:space="preserve">
<style type="text/css">
	.st0{fill:#ED1C24;}
</style>
<path id="logo" class="st0" d="M344.7,158.5v-22h-7.4v-7.2h7.4v-12.8h7.9v12.8h10.3v7.2h-10.3v21.4c0,4.7,2,6.9,5.7,6.9
	c1.5,0,2.5-0.2,3.6-0.7l2.7,6.8c-1.8,0.8-3.7,1.1-6.3,1.1C349.4,172,344.7,167.1,344.7,158.5z M293.9,150.3
	c0-11.9,8.2-22.3,20.6-22.3c12.5,0,20.5,8.8,20.5,22.3c0,0.6-0.1,1.5-0.1,1.5h-33.1c0.4,8.9,6.8,13.7,13.4,13.7
	c4.6,0,9.2-1.9,11.5-7.2l7,2.9c-2.5,6-8.6,11.5-18.3,11.5C302.5,172.6,293.9,163,293.9,150.3L293.9,150.3z M314.3,135.1
	c-5.8,0-10.4,3.9-12,10.1h24.3C326.4,141.6,323.3,135.1,314.3,135.1z M255.3,165.4H255v5.8h-7.5V110h7.9v19.4l-0.3,5.8h0.3
	c2.4-3.9,7.6-7.2,14.3-7.2c10.6,0,19.9,9.5,19.9,22.3c0,12.8-9.3,22.3-19.9,22.3C263,172.6,257.7,169.3,255.3,165.4z M281.7,150.3
	c0-9.4-6.3-15.2-13.4-15.2s-13.4,5.6-13.4,15.2s6.3,15.2,13.4,15.2C275.4,165.4,281.7,159.7,281.7,150.3z M202.1,158.6
	c0-9.5,8.6-14.6,18.4-14.6c5.7,0,9.8,1.6,11.4,2.6v-1.2c0-6.3-5.1-10.2-11-10.2c-4.4,0-8.6,2.1-10,6.1l-7.2-3.1
	c1.5-3.9,6.5-10.2,17-10.2c10.3,0,18.7,6.2,18.7,18v25.3h-7.5v-5.8h-0.3c-2.3,3.5-6.6,7.2-13.8,7.2
	C209.2,172.6,202.1,167.3,202.1,158.6z M231.9,153.2c0,0-3.3-2.7-10-2.7c-8.3,0-11.6,4.5-11.6,8.3c0,4.5,4.6,6.7,8.7,6.7
	C225.3,165.4,231.9,160.1,231.9,153.2z M166.4,129.3l-0.3,5.8h0.3c2.2-3.9,7.5-7.2,13.3-7.2c10.7,0,16,7.3,16,17.6v25.7h-7.9v-24.5
	c0-8.7-4.4-11.6-10.4-11.6c-6.9,0-11,6.5-11,12.9v23.2h-7.9V110h7.9L166.4,129.3L166.4,129.3z M118.4,165.4H118l0.3,5.8v18.5h-7.9
	v-60.5h7.5v5.8h0.3c2.4-3.9,7.6-7.2,14.3-7.2c10.6,0,19.9,9.5,19.9,22.3s-9.3,22.3-19.9,22.3C126,172.6,120.7,169.3,118.4,165.4z
	 M144.7,150.3c0-9.4-6.3-15.2-13.4-15.2c-7,0-13.4,5.6-13.4,15.2c0,9.6,6.3,15.2,13.4,15.2C138.4,165.4,144.7,159.7,144.7,150.3z
	 M94.2,171.3h7.9V110h-7.9C94.2,110,94.2,171.3,94.2,171.3z M57.6,110l-23.1,61.3h8.7l6-16.6H75l5.9,16.6h8.7L66.6,110H57.6z
	 M61.9,119.6h0.3l10,27.7H51.9C51.9,147.3,61.9,119.6,61.9,119.6z"/>
</svg>
