<?xml version="1.0" encoding="utf-8"?>
<!-- Generator: Adobe Illustrator 14.0.0, SVG Export Plug-In . SVG Version: 6.00 Build 43363)  -->
<!DOCTYPE svg PUBLIC "-//W3C//DTD SVG 1.1//EN" "http://www.w3.org/Graphics/SVG/1.1/DTD/svg11.dtd">
<svg version="1.1" id="Layer_1" xmlns="http://www.w3.org/2000/svg" xmlns:xlink="http://www.w3.org/1999/xlink" x="0px" y="0px"
	 width="400px" height="300px" viewBox="0 0 400 300" enable-background="new 0 0 400 300" xml:space="preserve">
<path fill="#1E1E1E" d="M266.172,137.004c-19.27,21.604-52.038,39.285-56.843,40.596h56.843V137.004z"/>
<path fill="#1E1E1E" d="M193.226,62.26c18.013-2.161,25.41,2.865,34.293,10.72c10.652,9.425,17.844,19.442,20.752,22.306
	c6.004,5.938,12.83,6.968,16.392,7.102c-4.495-12.897-10.927-28.555-32.782-40.703c-19.82-11.018-44.814-8.101-48.915-6.383
	C190.917,56.766,193.492,62.401,193.226,62.26z"/>
<path fill="#1E1E1E" d="M146.91,161.348c5.345-7.951,5.737-13.038,5.611-16.508c0.556-6.256-2.472-17.979-2.308-25.95
	c-0.978-15.763,2.583-31.836,13.502-41.401c-0.674-3.782-1.242-11.882,4.651-17.544c-10.107,4.042-37.299,19.559-39.616,54.324
	c0,0.172,0,62.716,0,62.716h12.185C141.172,173.096,142.062,168.654,146.91,161.348z"/>
<path fill="#1E1E1E" d="M166.322,77.17c-10.793,10.884-13.956,24.793-12.164,40.296c1.291,11.297,4.628,22.826,3.494,31.462
	c-0.024,0.183-0.038,0.373-0.066,0.552c0,0,3.667-7.538,9.418-12.313c-0.97-9.861-2.865-15.962-4.355-25.499
	c-3.442-22.181,0.223-34.841,23.744-45.204c-6.145,0.851-15.851,6.811-16.531,7.965c0,0-4.11-8.825,2.05-14.621
	c-0.466,0.297-0.891,0.612-1.294,0.936C162.99,66.862,166.322,77.17,166.322,77.17z"/>
<path fill="#1E1E1E" d="M205.234,127.307c48.36-23.042,55.193-7.966,55.193-7.966c7.803,16.805-36.055,41.006-39.054,42.155
	c-1.361,1.303-47.14,24.055-57.394,7.389c-0.393-1.453-4.774-13.32,27.186-37.811c15.865-12.185,36.479-20.713,53.542-25.355
	c-8.306,1.17-22.927,3.043-53.682,19.724c-15.819,9.124-28.929,21.495-36.239,32.365c-5.437,8.082-7.671,15.334-5.397,19.793
	c14.89,13.887,53.248-3.338,70.327-11.742c10.648-4.881,23.021-12.293,33.486-20.376c2.182-1.685,4.277-3.398,6.261-5.124
	c11.7-10.186,19.378-20.801,16.274-28.395c-2.725-3.622-7.217-5.2-12.652-5.406C241.534,105.735,205.141,126.502,205.234,127.307z"
	/>
<polygon fill="#1E1E1E" points="133.272,214.963 147.065,214.963 147.065,197.434 155.78,197.434 158.674,191.486 121.516,191.486 
	124.641,197.434 133.272,197.434 "/>
<path fill="#1E1E1E" d="M164.139,191.486l-13.105,23.478h13.668l2.027-4.635h12.017l1.784,4.635h14.059l-12.556-23.478H164.139z
	 M169.054,204.516l3.702-7.082l3.524,7.082H169.054z"/>
<polygon fill="#1E1E1E" points="201.702,229.734 204.398,224.225 171.497,224.225 171.497,247.422 203.592,247.422 203.592,241.742 
	185.171,241.742 185.171,238.285 200.602,238.285 200.602,232.926 185.171,232.926 185.171,229.734 "/>
<path fill="#1E1E1E" d="M221.1,224.225h-14.613v19.998c0,0,0.658,3.199,4.359,3.199h24.848l2.882-5.68H221.1V224.225z"/>
<path fill="#1E1E1E" d="M255.253,224.225h-14.644v19.998c0,0,0.701,3.199,4.396,3.199h24.862l2.851-5.68h-17.465V224.225z"/>
<path fill="#1E1E1E" d="M267.266,239.471c1.271,0,2.502-0.502,3.463-1.438c0.936-0.908,1.437-2.112,1.437-3.465
	c0-1.314-0.486-2.506-1.394-3.426c-0.946-0.961-2.166-1.463-3.506-1.463c-1.328,0-2.49,0.473-3.412,1.395
	c-0.947,0.949-1.476,2.193-1.476,3.494c0,1.285,0.5,2.488,1.421,3.424C264.732,238.941,265.965,239.471,267.266,239.471z
	 M264.368,231.588c0.785-0.783,1.772-1.189,2.909-1.189c1.151,0,2.166,0.433,2.979,1.244c0.784,0.801,1.19,1.816,1.19,2.994
	c0,1.094-0.434,2.123-1.218,2.883c-0.826,0.799-1.869,1.219-3.02,1.219c-1.059,0-2.1-0.446-2.896-1.246
	c-0.785-0.799-1.205-1.828-1.205-2.924C263.109,233.473,263.557,232.417,264.368,231.588z"/>
<path fill="#1E1E1E" d="M266.452,234.932h0.853l1.084,2.289h1.313l-1.219-2.479c0.785-0.174,1.219-0.717,1.219-1.516
	c0-0.961-0.771-1.49-2.314-1.49h-2.111v5.484h1.179v-2.289H266.452z M266.452,232.484h0.718c0.893,0,1.326,0.258,1.326,0.879
	c0,0.597-0.405,0.841-1.271,0.841h-0.771L266.452,232.484L266.452,232.484z"/>
<path fill="#1E1E1E" d="M212.348,197.996c2.594-1.289,12.543-0.563,12.543-0.563l2.476-4.935c0,0-4.097-1.015-12.425-1.015
	c0,0-24.023-0.576-21.981,13.031c0.402,11.912,19.933,10.446,21.583,11.025c5.868,0,12.009-1.172,12.009-1.172v-5.914
	c0,0-7.655,1.289-9.565,0.844c0,0-9.129,1.027-9.543-6.076C207.561,198.299,212.348,198.172,212.348,197.996z"/>
<path fill="#1E1E1E" d="M248.561,215.542c11.297,0,20.596-3.911,20.493-12.024c0-7.824-9.196-12.031-20.493-12.031
	c-11.334,0-19.975,5.367-19.975,12.031C228.467,211.344,237.227,215.542,248.561,215.542z M248.96,196.707
	c3.406,0,5.731,3.191,5.455,7.113c0.276,4.043-1.635,6.509-5.455,6.509c-4.103,0-5.894-2.896-5.894-6.47
	C243.066,200.313,244.568,196.574,248.96,196.707z"/>
<path fill="#1E1E1E" d="M163.443,235.234c0,0,4.923-0.852,4.249-5.5c0.674-4.918-6.982-5.51-6.982-5.51h-27.438v23.197h28.533
	c0,0,7.249-0.881,6.562-6.807C167.833,235.805,163.443,235.234,163.443,235.234z M146.502,228.711h6.982
	c0,0,1.769,0.297,1.769,1.902c0.527,2.313-1.916,2.313-1.909,2.313h-6.842V228.711z M153.344,242.193h-6.842v-4.479h6.982
	c0,0,2.296,0.568,2.296,2.014C156.357,242.068,153.337,242.193,153.344,242.193z"/>
<path fill="#1E1E1E" d="M170.018,165.775c3.167,7.203,24.831,3.59,48.411-8.055c23.571-11.668,40.119-26.948,36.95-34.16
	c-3.184-7.221-24.84-3.605-48.439,8.063C183.395,143.27,166.825,158.579,170.018,165.775z M178.886,152.93
	c1.096,2.072,6.412,6.389,18.968,3.496c-9.276,0.59-14.992-7.671-10.098-9.848c1.235-0.734,18.583-11.149,21.034-9.123
	c3.961,11.024-3.474,20.415-11.328,23.027c-6.544,2.184-15.717,2.621-21.322-5.205C176.021,155.002,178.745,152.93,178.886,152.93z"
	/>
</svg>
