<?xml version="1.0" encoding="utf-8"?>
<!-- Generator: Adobe Illustrator 23.0.3, SVG Export Plug-In . SVG Version: 6.00 Build 0)  -->
<svg version="1.1" id="Layer_1" xmlns="http://www.w3.org/2000/svg" xmlns:xlink="http://www.w3.org/1999/xlink" x="0px" y="0px"
	 viewBox="0 0 400 300" style="enable-background:new 0 0 400 300;" xml:space="preserve">
<style type="text/css">
	.st0{fill:#3458B0;}
</style>
<path class="st0" d="M259.7,139.9h-12l4.7,6.7h6.1l-5.1,29h10.6l5.1-29h13.2l-20.9-16.8L259.7,139.9L259.7,139.9z M52.2,123.5H4
	l-1.3,7.6h18.7l-7.8,44.6h10.6l7.8-44.6h18.9C50.9,131.1,52.2,123.5,52.2,123.5z M65.6,154H47.1c1.1-3.7,4.7-8.7,11.2-8.7
	C65.4,145.3,66.2,150.7,65.6,154 M60.1,139.1c-13.5,0-22.1,8.5-23.9,18.4c-1.9,11,4.8,19,18.5,19c6.1,0,11.8-1.1,16.4-3.7l1.4-8.2
	c-4.5,3.2-10.3,5-15.1,5c-6.8,0-12.2-2.8-11.3-9.3h28.1c0.3-0.8,0.7-2.1,1-3.8C76.5,148.7,73.7,139.1,60.1,139.1 M107,139.1
	c-6.6,0-11.6,2.7-13.9,5.5h-0.2l-9.3-5.5c-0.3,3.1-0.8,7.3-1.5,11.4l-4.4,25.1h10.6l3.7-21c0.2-1,0.5-2.1,1-2.9
	c1.6-2.8,4.9-5.3,9.1-5.3c5.8,0,7.4,3.9,6.5,9l-3.5,20.2h10.6l3.7-21.2C121.2,143.2,114.3,139.1,107,139.1 M234.3,139.1
	c-6.6,0-11.6,2.7-13.9,5.5h-0.2l-9.3-5.5c-0.3,3.1-0.8,7.3-1.5,11.4l-4.4,25.1h10.6l3.7-21c0.2-1,0.5-2.1,1-2.9
	c1.6-2.8,4.9-5.3,9.1-5.3c5.8,0,7.4,3.9,6.5,9l-3.5,20.2h10.6l3.7-21.2C248.6,143.2,241.7,139.1,234.3,139.1 M192.9,154h-18.5
	c1.1-3.7,4.7-8.7,11.2-8.7C192.8,145.3,193.6,150.7,192.9,154 M187.4,139.1c-13.5,0-22.1,8.5-23.8,18.4c-1.9,11,4.8,19,18.5,19
	c6.1,0,11.8-1.1,16.4-3.7l1.4-8.2c-4.5,3.2-10.3,5-15.1,5c-6.8,0-12.2-2.8-11.3-9.3h28.1c0.3-0.8,0.7-2.1,1-3.8
	C203.9,148.7,201.1,139.1,187.4,139.1 M123.7,157.3c-1.9,11.1,5.8,19.1,19,19.1c5.2,0,11.5-1.5,13.8-2.4l1.7-9.6
	c-3.7,4-8.7,4.8-12.2,4.8c-7.2,0-12.7-4.2-11.4-11.5c1.1-6.6,7.3-11.6,15.4-11.6c3.3,0,7.8,1.1,10.6,4.8l1.6-9.7
	c-2.3-0.9-5.9-2.1-11.3-2.1C136.1,139.2,125.6,146.6,123.7,157.3 M330.7,147.6c-1-1.1-2.1-3-2.7-4.3h-2.2c-1.2,1.5-3,3.1-4.5,4.3
	H330.7L330.7,147.6z M328.5,152h-12.9l3.9,1.8l-0.7,3.5h8.6C327.3,157.3,328.5,152,328.5,152z M334.7,151.2l-1.4,6.1h2.9
	c2,0,3.4,0.4,3,2.8c-0.7,4.4-1.8,10.5-2.8,15.6h-15.7l-1.3-4.7H331c0.5-2.5,1.2-5.5,1.5-8c0.1-0.8-0.2-1.1-1.1-1.1h-19.6l1.8-9.5
	c-1.4,0.7-3.5,1.4-5.6,1.8l1.2-5.7c3.7-0.9,7.4-2.7,9.7-5.2h-8.8l1-4.5H322c0.6-0.8,1.1-1.9,1.3-2.7h-11.7l0.9-4.7h4.2l-1.5-6.9h6
	l1.4,6.9h2.1c0.7-2.3,1.1-5.4,1.2-7.9h6.1c-0.1,2.5-0.5,5.6-1.1,7.9h2.4c0.9-2.1,1.9-4.7,2.7-6.9h6.1c-0.8,2.1-1.9,4.7-2.9,6.9h4.3
	l-1.1,4.7h-12.7c-0.2,0.8-0.7,1.9-1.1,2.7H344l-1.1,4.5h-9.1c1.9,2.9,6.6,5.1,10.2,5.9l-2,5.1C339.6,153.7,336.8,152.5,334.7,151.2
	 M328,168.8h-20l-0.8-4.6H329v0.1L328,168.8L328,168.8z M304.4,129.9h-3c-0.5,2.8-0.9,5.8-1.5,8.9h4l1.5-7.7
	C305.6,130.2,305.3,129.9,304.4,129.9 M303.2,143.5h-4.1c-0.6,3.1-1.2,6.3-1.9,9.5h4.3L303.2,143.5z M311.4,128.3
	c-2.9,15.9-5.5,31.6-8.5,47.5h-6c1.2-6,2.5-12.3,3.5-18.2h-4.3c-1.3,6.1-2.7,12.3-4,18.2h-6c5-16,7.5-32.5,10.3-50.7h11.2
	C310.8,125,311.9,125.5,311.4,128.3 M393.5,125.1h-27.6l1.2,5.3h20.6c1.4,0,2,0.2,1.7,1.7c-0.8,4.3-1.6,8.6-2.4,12.8h-9l1.5-9
	l-6.3-3.7l-2.3,12.7h-6.7l-0.9,5.3h6.6c-1.4,8.5-3,17.2-4.7,25.7h7.2c1.7-8.6,3.3-17.1,4.7-25.7h8.9c-1.5,8.6-3.1,17.4-4.8,25.7
	h12.7l2.2-5.3h-6.7c2.7-13.5,5.4-27.7,7.8-41.3C397.7,126.2,397.1,125.1,393.5,125.1 M363.2,136c-0.9-4.1-2-8.5-3-12.5h-6.7
	c0.9,4.1,1.8,8.5,2.6,12.5H363.2z M348.6,138.7H361c-1.2,8.3-2.7,16.7-4.3,25.1c2.4-1.8,4.8-3.7,7.1-5.6l-1.3,7.6
	c-4.2,3.5-10,7.7-15.3,10.7c2.3-10.7,4.4-22.1,6-32.5h-5.6L348.6,138.7"/>
</svg>
