<svg width="102" height="17" viewBox="0 0 102 17" fill="none" xmlns="http://www.w3.org/2000/svg">
<mask id="path-1-outside-1_6_6" maskUnits="userSpaceOnUse" x="0" y="0" width="102" height="17" fill="black">
<rect fill="white" width="102" height="17"/>
<path d="M5.48864 15.5455H1V1H5.6875C7.09848 1 8.30587 1.29119 9.30966 1.87358C10.3134 2.45123 11.0829 3.2822 11.6179 4.36648C12.1529 5.44602 12.4205 6.73864 12.4205 8.24432C12.4205 9.75947 12.1506 11.0639 11.6108 12.1577C11.071 13.2467 10.285 14.0848 9.25284 14.6719C8.22064 15.2543 6.96591 15.5455 5.48864 15.5455ZM2.76136 13.983H5.375C6.57765 13.983 7.57434 13.7509 8.36506 13.2869C9.15578 12.8229 9.74526 12.1624 10.1335 11.3054C10.5218 10.4484 10.7159 9.42803 10.7159 8.24432C10.7159 7.07008 10.5241 6.05919 10.1406 5.21165C9.7571 4.35938 9.18419 3.70597 8.42188 3.25142C7.65956 2.79214 6.71023 2.5625 5.57386 2.5625H2.76136V13.983ZM18.358 15.8011C17.6667 15.8011 17.0393 15.6709 16.4759 15.4105C15.9124 15.1454 15.465 14.7642 15.1335 14.267C14.8021 13.7652 14.6364 13.1591 14.6364 12.4489C14.6364 11.8239 14.7595 11.3172 15.0057 10.929C15.2519 10.536 15.581 10.2282 15.9929 10.0057C16.4048 9.78314 16.8594 9.61742 17.3565 9.50852C17.8584 9.39489 18.3627 9.30492 18.8693 9.23864C19.5322 9.15341 20.0696 9.08949 20.4815 9.04688C20.8982 8.99953 21.2012 8.9214 21.3906 8.8125C21.5848 8.7036 21.6818 8.5142 21.6818 8.24432V8.1875C21.6818 7.48674 21.4901 6.94223 21.1065 6.55398C20.7277 6.16572 20.1525 5.97159 19.3807 5.97159C18.5805 5.97159 17.9531 6.14678 17.4986 6.49716C17.044 6.84754 16.7244 7.22159 16.5398 7.61932L14.9489 7.05114C15.233 6.38826 15.6117 5.87216 16.0852 5.50284C16.5634 5.12879 17.0843 4.86837 17.6477 4.72159C18.2159 4.57008 18.7746 4.49432 19.3239 4.49432C19.6742 4.49432 20.0767 4.53693 20.5312 4.62216C20.9905 4.70265 21.4332 4.87074 21.8594 5.12642C22.2902 5.3821 22.6477 5.76799 22.9318 6.28409C23.2159 6.80019 23.358 7.49148 23.358 8.35795V15.5455H21.6818V14.0682H21.5966C21.483 14.3049 21.2936 14.5582 21.0284 14.8281C20.7633 15.098 20.4105 15.3277 19.9702 15.517C19.5298 15.7064 18.9924 15.8011 18.358 15.8011ZM18.6136 14.2955C19.2765 14.2955 19.8352 14.1652 20.2898 13.9048C20.7491 13.6444 21.0947 13.3082 21.3267 12.8963C21.5634 12.4844 21.6818 12.0511 21.6818 11.5966V10.0625C21.6108 10.1477 21.4545 10.2259 21.2131 10.2969C20.9763 10.3632 20.7017 10.4223 20.3892 10.4744C20.0814 10.5218 19.7808 10.5644 19.4872 10.6023C19.1984 10.6354 18.964 10.6638 18.7841 10.6875C18.3485 10.7443 17.9413 10.8366 17.5625 10.9645C17.1884 11.0876 16.8854 11.2746 16.6534 11.5256C16.4261 11.7718 16.3125 12.108 16.3125 12.5341C16.3125 13.1165 16.5279 13.5568 16.9588 13.8551C17.3944 14.1487 17.946 14.2955 18.6136 14.2955ZM34.1445 7.07955L32.6388 7.50568C32.5442 7.25473 32.4045 7.01089 32.2198 6.77415C32.0399 6.53267 31.7937 6.33381 31.4812 6.17756C31.1687 6.02131 30.7686 5.94318 30.2809 5.94318C29.6133 5.94318 29.0569 6.09706 28.6119 6.40483C28.1715 6.70786 27.9513 7.09375 27.9513 7.5625C27.9513 7.97917 28.1029 8.30824 28.4059 8.54972C28.7089 8.79119 29.1824 8.99242 29.8263 9.15341L31.4457 9.55114C32.421 9.78788 33.1478 10.1501 33.6261 10.6378C34.1043 11.1207 34.3434 11.7434 34.3434 12.5057C34.3434 13.1307 34.1635 13.6894 33.8036 14.1818C33.4485 14.6742 32.9513 15.0625 32.3121 15.3466C31.6729 15.6307 30.9296 15.7727 30.082 15.7727C28.9693 15.7727 28.0484 15.5313 27.3192 15.0483C26.5901 14.5653 26.1284 13.8598 25.9343 12.9318L27.5252 12.5341C27.6767 13.1212 27.9632 13.5616 28.3846 13.8551C28.8107 14.1487 29.3671 14.2955 30.0536 14.2955C30.8349 14.2955 31.4551 14.1297 31.9144 13.7983C32.3784 13.4621 32.6104 13.0597 32.6104 12.5909C32.6104 12.2121 32.4779 11.8949 32.2127 11.6392C31.9476 11.3788 31.5404 11.1847 30.9911 11.0568L29.1729 10.6307C28.1739 10.3939 27.44 10.027 26.9712 9.52983C26.5072 9.02794 26.2752 8.40057 26.2752 7.64773C26.2752 7.0322 26.448 6.48769 26.7937 6.0142C27.1441 5.54072 27.6199 5.16903 28.2212 4.89915C28.8273 4.62926 29.5138 4.49432 30.2809 4.49432C31.3604 4.49432 32.208 4.73106 32.8235 5.20455C33.4438 5.67803 33.8841 6.30303 34.1445 7.07955ZM38.5426 8.98295V15.5455H36.8665V1H38.5426V6.34091H38.6847C38.9403 5.77746 39.3239 5.33002 39.8352 4.99858C40.3513 4.66241 41.0379 4.49432 41.8949 4.49432C42.6383 4.49432 43.2893 4.64347 43.848 4.94176C44.4067 5.23532 44.84 5.6875 45.1477 6.2983C45.4602 6.90436 45.6165 7.67614 45.6165 8.61364V15.5455H43.9403V8.72727C43.9403 7.8608 43.7154 7.19081 43.2656 6.71733C42.8205 6.23911 42.2026 6 41.4119 6C40.8627 6 40.3703 6.116 39.9347 6.34801C39.5038 6.58002 39.1629 6.91856 38.9119 7.36364C38.6657 7.80871 38.5426 8.34848 38.5426 8.98295ZM48.9102 15.5455V1H50.5863V6.36932H50.7283C50.8514 6.17992 51.0219 5.93845 51.2397 5.64489C51.4622 5.34659 51.7795 5.08144 52.1914 4.84943C52.6081 4.61269 53.1715 4.49432 53.8817 4.49432C54.8003 4.49432 55.61 4.72396 56.3107 5.18324C57.0115 5.64252 57.5584 6.29356 57.9514 7.13636C58.3443 7.97917 58.5408 8.97349 58.5408 10.1193C58.5408 11.2746 58.3443 12.276 57.9514 13.1236C57.5584 13.9664 57.0138 14.6198 56.3178 15.0838C55.6218 15.5431 54.8192 15.7727 53.9102 15.7727C53.2094 15.7727 52.6483 15.6567 52.2269 15.4247C51.8055 15.188 51.4812 14.9205 51.2539 14.6222C51.0266 14.3191 50.8514 14.0682 50.7283 13.8693H50.5295V15.5455H48.9102ZM50.5579 10.0909C50.5579 10.9148 50.6786 11.6416 50.9201 12.2713C51.1616 12.8963 51.5143 13.3864 51.9783 13.7415C52.4424 14.0919 53.0105 14.267 53.6829 14.267C54.3836 14.267 54.9684 14.0824 55.4371 13.7131C55.9106 13.339 56.2657 12.8371 56.5025 12.2074C56.744 11.5729 56.8647 10.8674 56.8647 10.0909C56.8647 9.32386 56.7463 8.63258 56.5096 8.01705C56.2776 7.39678 55.9248 6.90672 55.4514 6.54688C54.9826 6.18229 54.3931 6 53.6829 6C53.0011 6 52.4281 6.17282 51.9641 6.51847C51.5001 6.85938 51.1497 7.33759 50.913 7.95312C50.6763 8.56392 50.5579 9.27651 50.5579 10.0909ZM65.5366 15.7727C64.5517 15.7727 63.6876 15.5384 62.9442 15.0696C62.2056 14.6009 61.628 13.9451 61.2113 13.1023C60.7994 12.2595 60.5934 11.2746 60.5934 10.1477C60.5934 9.01136 60.7994 8.01941 61.2113 7.17188C61.628 6.32434 62.2056 5.66619 62.9442 5.19744C63.6876 4.72869 64.5517 4.49432 65.5366 4.49432C66.5214 4.49432 67.3832 4.72869 68.1218 5.19744C68.8652 5.66619 69.4428 6.32434 69.8548 7.17188C70.2714 8.01941 70.4798 9.01136 70.4798 10.1477C70.4798 11.2746 70.2714 12.2595 69.8548 13.1023C69.4428 13.9451 68.8652 14.6009 68.1218 15.0696C67.3832 15.5384 66.5214 15.7727 65.5366 15.7727ZM65.5366 14.267C66.2847 14.267 66.9002 14.0753 67.3832 13.6918C67.8661 13.3082 68.2236 12.804 68.4556 12.179C68.6876 11.554 68.8036 10.8769 68.8036 10.1477C68.8036 9.41856 68.6876 8.73911 68.4556 8.10938C68.2236 7.47964 67.8661 6.97064 67.3832 6.58239C66.9002 6.19413 66.2847 6 65.5366 6C64.7885 6 64.1729 6.19413 63.69 6.58239C63.207 6.97064 62.8495 7.47964 62.6175 8.10938C62.3855 8.73911 62.2695 9.41856 62.2695 10.1477C62.2695 10.8769 62.3855 11.554 62.6175 12.179C62.8495 12.804 63.207 13.3082 63.69 13.6918C64.1729 14.0753 64.7885 14.267 65.5366 14.267ZM76.2486 15.8011C75.5573 15.8011 74.9299 15.6709 74.3665 15.4105C73.803 15.1454 73.3556 14.7642 73.0241 14.267C72.6927 13.7652 72.527 13.1591 72.527 12.4489C72.527 11.8239 72.6501 11.3172 72.8963 10.929C73.1425 10.536 73.4716 10.2282 73.8835 10.0057C74.2955 9.78314 74.75 9.61742 75.2472 9.50852C75.7491 9.39489 76.2533 9.30492 76.7599 9.23864C77.4228 9.15341 77.9602 9.08949 78.3722 9.04688C78.7888 8.99953 79.0919 8.9214 79.2812 8.8125C79.4754 8.7036 79.5724 8.5142 79.5724 8.24432V8.1875C79.5724 7.48674 79.3807 6.94223 78.9972 6.55398C78.6184 6.16572 78.0431 5.97159 77.2713 5.97159C76.4711 5.97159 75.8438 6.14678 75.3892 6.49716C74.9347 6.84754 74.6151 7.22159 74.4304 7.61932L72.8395 7.05114C73.1236 6.38826 73.5024 5.87216 73.9759 5.50284C74.4541 5.12879 74.9749 4.86837 75.5384 4.72159C76.1065 4.57008 76.6652 4.49432 77.2145 4.49432C77.5649 4.49432 77.9673 4.53693 78.4219 4.62216C78.8812 4.70265 79.3239 4.87074 79.75 5.12642C80.1809 5.3821 80.5384 5.76799 80.8224 6.28409C81.1065 6.80019 81.2486 7.49148 81.2486 8.35795V15.5455H79.5724V14.0682H79.4872C79.3736 14.3049 79.1842 14.5582 78.919 14.8281C78.6539 15.098 78.3011 15.3277 77.8608 15.517C77.4205 15.7064 76.8831 15.8011 76.2486 15.8011ZM76.5043 14.2955C77.1671 14.2955 77.7259 14.1652 78.1804 13.9048C78.6397 13.6444 78.9853 13.3082 79.2173 12.8963C79.4541 12.4844 79.5724 12.0511 79.5724 11.5966V10.0625C79.5014 10.1477 79.3452 10.2259 79.1037 10.2969C78.8669 10.3632 78.5923 10.4223 78.2798 10.4744C77.9721 10.5218 77.6714 10.5644 77.3778 10.6023C77.089 10.6354 76.8546 10.6638 76.6747 10.6875C76.2391 10.7443 75.8319 10.8366 75.4531 10.9645C75.0791 11.0876 74.776 11.2746 74.544 11.5256C74.3168 11.7718 74.2031 12.108 74.2031 12.5341C74.2031 13.1165 74.4186 13.5568 74.8494 13.8551C75.285 14.1487 75.8367 14.2955 76.5043 14.2955ZM84.3079 15.5455V4.63636H85.9272V6.28409H86.0408C86.2397 5.74432 86.5996 5.30634 87.1204 4.97017C87.6412 4.634 88.2283 4.46591 88.8817 4.46591C89.0049 4.46591 89.1587 4.46828 89.3434 4.47301C89.5281 4.47775 89.6677 4.48485 89.7624 4.49432V6.19886C89.7056 6.18466 89.5754 6.16335 89.3718 6.13494C89.1729 6.1018 88.9622 6.08523 88.7397 6.08523C88.2094 6.08523 87.7359 6.1965 87.3192 6.41903C86.9073 6.63684 86.5806 6.93987 86.3391 7.32812C86.1024 7.71165 85.984 8.14962 85.984 8.64205V15.5455H84.3079ZM95.5366 15.7727C94.6275 15.7727 93.8249 15.5431 93.1289 15.0838C92.4329 14.6198 91.8884 13.9664 91.4954 13.1236C91.1024 12.276 90.9059 11.2746 90.9059 10.1193C90.9059 8.97349 91.1024 7.97917 91.4954 7.13636C91.8884 6.29356 92.4353 5.64252 93.136 5.18324C93.8368 4.72396 94.6464 4.49432 95.565 4.49432C96.2752 4.49432 96.8363 4.61269 97.2482 4.84943C97.6649 5.08144 97.9821 5.34659 98.1999 5.64489C98.4225 5.93845 98.5953 6.17992 98.7184 6.36932H98.8604V1H100.537V15.5455H98.9173V13.8693H98.7184C98.5953 14.0682 98.4201 14.3191 98.1928 14.6222C97.9656 14.9205 97.6412 15.188 97.2198 15.4247C96.7984 15.6567 96.2373 15.7727 95.5366 15.7727ZM95.7638 14.267C96.4362 14.267 97.0044 14.0919 97.4684 13.7415C97.9324 13.3864 98.2852 12.8963 98.5266 12.2713C98.7681 11.6416 98.8888 10.9148 98.8888 10.0909C98.8888 9.27651 98.7705 8.56392 98.5337 7.95312C98.297 7.33759 97.9466 6.85938 97.4826 6.51847C97.0186 6.17282 96.4457 6 95.7638 6C95.0536 6 94.4618 6.18229 93.9883 6.54688C93.5195 6.90672 93.1668 7.39678 92.93 8.01705C92.698 8.63258 92.582 9.32386 92.582 10.0909C92.582 10.8674 92.7004 11.5729 92.9371 12.2074C93.1786 12.8371 93.5337 13.339 94.0025 13.7131C94.476 14.0824 95.0631 14.267 95.7638 14.267Z"/>
</mask>
<path d="M5.48864 15.5455H1V1H5.6875C7.09848 1 8.30587 1.29119 9.30966 1.87358C10.3134 2.45123 11.0829 3.2822 11.6179 4.36648C12.1529 5.44602 12.4205 6.73864 12.4205 8.24432C12.4205 9.75947 12.1506 11.0639 11.6108 12.1577C11.071 13.2467 10.285 14.0848 9.25284 14.6719C8.22064 15.2543 6.96591 15.5455 5.48864 15.5455ZM2.76136 13.983H5.375C6.57765 13.983 7.57434 13.7509 8.36506 13.2869C9.15578 12.8229 9.74526 12.1624 10.1335 11.3054C10.5218 10.4484 10.7159 9.42803 10.7159 8.24432C10.7159 7.07008 10.5241 6.05919 10.1406 5.21165C9.7571 4.35938 9.18419 3.70597 8.42188 3.25142C7.65956 2.79214 6.71023 2.5625 5.57386 2.5625H2.76136V13.983ZM18.358 15.8011C17.6667 15.8011 17.0393 15.6709 16.4759 15.4105C15.9124 15.1454 15.465 14.7642 15.1335 14.267C14.8021 13.7652 14.6364 13.1591 14.6364 12.4489C14.6364 11.8239 14.7595 11.3172 15.0057 10.929C15.2519 10.536 15.581 10.2282 15.9929 10.0057C16.4048 9.78314 16.8594 9.61742 17.3565 9.50852C17.8584 9.39489 18.3627 9.30492 18.8693 9.23864C19.5322 9.15341 20.0696 9.08949 20.4815 9.04688C20.8982 8.99953 21.2012 8.9214 21.3906 8.8125C21.5848 8.7036 21.6818 8.5142 21.6818 8.24432V8.1875C21.6818 7.48674 21.4901 6.94223 21.1065 6.55398C20.7277 6.16572 20.1525 5.97159 19.3807 5.97159C18.5805 5.97159 17.9531 6.14678 17.4986 6.49716C17.044 6.84754 16.7244 7.22159 16.5398 7.61932L14.9489 7.05114C15.233 6.38826 15.6117 5.87216 16.0852 5.50284C16.5634 5.12879 17.0843 4.86837 17.6477 4.72159C18.2159 4.57008 18.7746 4.49432 19.3239 4.49432C19.6742 4.49432 20.0767 4.53693 20.5312 4.62216C20.9905 4.70265 21.4332 4.87074 21.8594 5.12642C22.2902 5.3821 22.6477 5.76799 22.9318 6.28409C23.2159 6.80019 23.358 7.49148 23.358 8.35795V15.5455H21.6818V14.0682H21.5966C21.483 14.3049 21.2936 14.5582 21.0284 14.8281C20.7633 15.098 20.4105 15.3277 19.9702 15.517C19.5298 15.7064 18.9924 15.8011 18.358 15.8011ZM18.6136 14.2955C19.2765 14.2955 19.8352 14.1652 20.2898 13.9048C20.7491 13.6444 21.0947 13.3082 21.3267 12.8963C21.5634 12.4844 21.6818 12.0511 21.6818 11.5966V10.0625C21.6108 10.1477 21.4545 10.2259 21.2131 10.2969C20.9763 10.3632 20.7017 10.4223 20.3892 10.4744C20.0814 10.5218 19.7808 10.5644 19.4872 10.6023C19.1984 10.6354 18.964 10.6638 18.7841 10.6875C18.3485 10.7443 17.9413 10.8366 17.5625 10.9645C17.1884 11.0876 16.8854 11.2746 16.6534 11.5256C16.4261 11.7718 16.3125 12.108 16.3125 12.5341C16.3125 13.1165 16.5279 13.5568 16.9588 13.8551C17.3944 14.1487 17.946 14.2955 18.6136 14.2955ZM34.1445 7.07955L32.6388 7.50568C32.5442 7.25473 32.4045 7.01089 32.2198 6.77415C32.0399 6.53267 31.7937 6.33381 31.4812 6.17756C31.1687 6.02131 30.7686 5.94318 30.2809 5.94318C29.6133 5.94318 29.0569 6.09706 28.6119 6.40483C28.1715 6.70786 27.9513 7.09375 27.9513 7.5625C27.9513 7.97917 28.1029 8.30824 28.4059 8.54972C28.7089 8.79119 29.1824 8.99242 29.8263 9.15341L31.4457 9.55114C32.421 9.78788 33.1478 10.1501 33.6261 10.6378C34.1043 11.1207 34.3434 11.7434 34.3434 12.5057C34.3434 13.1307 34.1635 13.6894 33.8036 14.1818C33.4485 14.6742 32.9513 15.0625 32.3121 15.3466C31.6729 15.6307 30.9296 15.7727 30.082 15.7727C28.9693 15.7727 28.0484 15.5313 27.3192 15.0483C26.5901 14.5653 26.1284 13.8598 25.9343 12.9318L27.5252 12.5341C27.6767 13.1212 27.9632 13.5616 28.3846 13.8551C28.8107 14.1487 29.3671 14.2955 30.0536 14.2955C30.8349 14.2955 31.4551 14.1297 31.9144 13.7983C32.3784 13.4621 32.6104 13.0597 32.6104 12.5909C32.6104 12.2121 32.4779 11.8949 32.2127 11.6392C31.9476 11.3788 31.5404 11.1847 30.9911 11.0568L29.1729 10.6307C28.1739 10.3939 27.44 10.027 26.9712 9.52983C26.5072 9.02794 26.2752 8.40057 26.2752 7.64773C26.2752 7.0322 26.448 6.48769 26.7937 6.0142C27.1441 5.54072 27.6199 5.16903 28.2212 4.89915C28.8273 4.62926 29.5138 4.49432 30.2809 4.49432C31.3604 4.49432 32.208 4.73106 32.8235 5.20455C33.4438 5.67803 33.8841 6.30303 34.1445 7.07955ZM38.5426 8.98295V15.5455H36.8665V1H38.5426V6.34091H38.6847C38.9403 5.77746 39.3239 5.33002 39.8352 4.99858C40.3513 4.66241 41.0379 4.49432 41.8949 4.49432C42.6383 4.49432 43.2893 4.64347 43.848 4.94176C44.4067 5.23532 44.84 5.6875 45.1477 6.2983C45.4602 6.90436 45.6165 7.67614 45.6165 8.61364V15.5455H43.9403V8.72727C43.9403 7.8608 43.7154 7.19081 43.2656 6.71733C42.8205 6.23911 42.2026 6 41.4119 6C40.8627 6 40.3703 6.116 39.9347 6.34801C39.5038 6.58002 39.1629 6.91856 38.9119 7.36364C38.6657 7.80871 38.5426 8.34848 38.5426 8.98295ZM48.9102 15.5455V1H50.5863V6.36932H50.7283C50.8514 6.17992 51.0219 5.93845 51.2397 5.64489C51.4622 5.34659 51.7795 5.08144 52.1914 4.84943C52.6081 4.61269 53.1715 4.49432 53.8817 4.49432C54.8003 4.49432 55.61 4.72396 56.3107 5.18324C57.0115 5.64252 57.5584 6.29356 57.9514 7.13636C58.3443 7.97917 58.5408 8.97349 58.5408 10.1193C58.5408 11.2746 58.3443 12.276 57.9514 13.1236C57.5584 13.9664 57.0138 14.6198 56.3178 15.0838C55.6218 15.5431 54.8192 15.7727 53.9102 15.7727C53.2094 15.7727 52.6483 15.6567 52.2269 15.4247C51.8055 15.188 51.4812 14.9205 51.2539 14.6222C51.0266 14.3191 50.8514 14.0682 50.7283 13.8693H50.5295V15.5455H48.9102ZM50.5579 10.0909C50.5579 10.9148 50.6786 11.6416 50.9201 12.2713C51.1616 12.8963 51.5143 13.3864 51.9783 13.7415C52.4424 14.0919 53.0105 14.267 53.6829 14.267C54.3836 14.267 54.9684 14.0824 55.4371 13.7131C55.9106 13.339 56.2657 12.8371 56.5025 12.2074C56.744 11.5729 56.8647 10.8674 56.8647 10.0909C56.8647 9.32386 56.7463 8.63258 56.5096 8.01705C56.2776 7.39678 55.9248 6.90672 55.4514 6.54688C54.9826 6.18229 54.3931 6 53.6829 6C53.0011 6 52.4281 6.17282 51.9641 6.51847C51.5001 6.85938 51.1497 7.33759 50.913 7.95312C50.6763 8.56392 50.5579 9.27651 50.5579 10.0909ZM65.5366 15.7727C64.5517 15.7727 63.6876 15.5384 62.9442 15.0696C62.2056 14.6009 61.628 13.9451 61.2113 13.1023C60.7994 12.2595 60.5934 11.2746 60.5934 10.1477C60.5934 9.01136 60.7994 8.01941 61.2113 7.17188C61.628 6.32434 62.2056 5.66619 62.9442 5.19744C63.6876 4.72869 64.5517 4.49432 65.5366 4.49432C66.5214 4.49432 67.3832 4.72869 68.1218 5.19744C68.8652 5.66619 69.4428 6.32434 69.8548 7.17188C70.2714 8.01941 70.4798 9.01136 70.4798 10.1477C70.4798 11.2746 70.2714 12.2595 69.8548 13.1023C69.4428 13.9451 68.8652 14.6009 68.1218 15.0696C67.3832 15.5384 66.5214 15.7727 65.5366 15.7727ZM65.5366 14.267C66.2847 14.267 66.9002 14.0753 67.3832 13.6918C67.8661 13.3082 68.2236 12.804 68.4556 12.179C68.6876 11.554 68.8036 10.8769 68.8036 10.1477C68.8036 9.41856 68.6876 8.73911 68.4556 8.10938C68.2236 7.47964 67.8661 6.97064 67.3832 6.58239C66.9002 6.19413 66.2847 6 65.5366 6C64.7885 6 64.1729 6.19413 63.69 6.58239C63.207 6.97064 62.8495 7.47964 62.6175 8.10938C62.3855 8.73911 62.2695 9.41856 62.2695 10.1477C62.2695 10.8769 62.3855 11.554 62.6175 12.179C62.8495 12.804 63.207 13.3082 63.69 13.6918C64.1729 14.0753 64.7885 14.267 65.5366 14.267ZM76.2486 15.8011C75.5573 15.8011 74.9299 15.6709 74.3665 15.4105C73.803 15.1454 73.3556 14.7642 73.0241 14.267C72.6927 13.7652 72.527 13.1591 72.527 12.4489C72.527 11.8239 72.6501 11.3172 72.8963 10.929C73.1425 10.536 73.4716 10.2282 73.8835 10.0057C74.2955 9.78314 74.75 9.61742 75.2472 9.50852C75.7491 9.39489 76.2533 9.30492 76.7599 9.23864C77.4228 9.15341 77.9602 9.08949 78.3722 9.04688C78.7888 8.99953 79.0919 8.9214 79.2812 8.8125C79.4754 8.7036 79.5724 8.5142 79.5724 8.24432V8.1875C79.5724 7.48674 79.3807 6.94223 78.9972 6.55398C78.6184 6.16572 78.0431 5.97159 77.2713 5.97159C76.4711 5.97159 75.8438 6.14678 75.3892 6.49716C74.9347 6.84754 74.6151 7.22159 74.4304 7.61932L72.8395 7.05114C73.1236 6.38826 73.5024 5.87216 73.9759 5.50284C74.4541 5.12879 74.9749 4.86837 75.5384 4.72159C76.1065 4.57008 76.6652 4.49432 77.2145 4.49432C77.5649 4.49432 77.9673 4.53693 78.4219 4.62216C78.8812 4.70265 79.3239 4.87074 79.75 5.12642C80.1809 5.3821 80.5384 5.76799 80.8224 6.28409C81.1065 6.80019 81.2486 7.49148 81.2486 8.35795V15.5455H79.5724V14.0682H79.4872C79.3736 14.3049 79.1842 14.5582 78.919 14.8281C78.6539 15.098 78.3011 15.3277 77.8608 15.517C77.4205 15.7064 76.8831 15.8011 76.2486 15.8011ZM76.5043 14.2955C77.1671 14.2955 77.7259 14.1652 78.1804 13.9048C78.6397 13.6444 78.9853 13.3082 79.2173 12.8963C79.4541 12.4844 79.5724 12.0511 79.5724 11.5966V10.0625C79.5014 10.1477 79.3452 10.2259 79.1037 10.2969C78.8669 10.3632 78.5923 10.4223 78.2798 10.4744C77.9721 10.5218 77.6714 10.5644 77.3778 10.6023C77.089 10.6354 76.8546 10.6638 76.6747 10.6875C76.2391 10.7443 75.8319 10.8366 75.4531 10.9645C75.0791 11.0876 74.776 11.2746 74.544 11.5256C74.3168 11.7718 74.2031 12.108 74.2031 12.5341C74.2031 13.1165 74.4186 13.5568 74.8494 13.8551C75.285 14.1487 75.8367 14.2955 76.5043 14.2955ZM84.3079 15.5455V4.63636H85.9272V6.28409H86.0408C86.2397 5.74432 86.5996 5.30634 87.1204 4.97017C87.6412 4.634 88.2283 4.46591 88.8817 4.46591C89.0049 4.46591 89.1587 4.46828 89.3434 4.47301C89.5281 4.47775 89.6677 4.48485 89.7624 4.49432V6.19886C89.7056 6.18466 89.5754 6.16335 89.3718 6.13494C89.1729 6.1018 88.9622 6.08523 88.7397 6.08523C88.2094 6.08523 87.7359 6.1965 87.3192 6.41903C86.9073 6.63684 86.5806 6.93987 86.3391 7.32812C86.1024 7.71165 85.984 8.14962 85.984 8.64205V15.5455H84.3079ZM95.5366 15.7727C94.6275 15.7727 93.8249 15.5431 93.1289 15.0838C92.4329 14.6198 91.8884 13.9664 91.4954 13.1236C91.1024 12.276 90.9059 11.2746 90.9059 10.1193C90.9059 8.97349 91.1024 7.97917 91.4954 7.13636C91.8884 6.29356 92.4353 5.64252 93.136 5.18324C93.8368 4.72396 94.6464 4.49432 95.565 4.49432C96.2752 4.49432 96.8363 4.61269 97.2482 4.84943C97.6649 5.08144 97.9821 5.34659 98.1999 5.64489C98.4225 5.93845 98.5953 6.17992 98.7184 6.36932H98.8604V1H100.537V15.5455H98.9173V13.8693H98.7184C98.5953 14.0682 98.4201 14.3191 98.1928 14.6222C97.9656 14.9205 97.6412 15.188 97.2198 15.4247C96.7984 15.6567 96.2373 15.7727 95.5366 15.7727ZM95.7638 14.267C96.4362 14.267 97.0044 14.0919 97.4684 13.7415C97.9324 13.3864 98.2852 12.8963 98.5266 12.2713C98.7681 11.6416 98.8888 10.9148 98.8888 10.0909C98.8888 9.27651 98.7705 8.56392 98.5337 7.95312C98.297 7.33759 97.9466 6.85938 97.4826 6.51847C97.0186 6.17282 96.4457 6 95.7638 6C95.0536 6 94.4618 6.18229 93.9883 6.54688C93.5195 6.90672 93.1668 7.39678 92.93 8.01705C92.698 8.63258 92.582 9.32386 92.582 10.0909C92.582 10.8674 92.7004 11.5729 92.9371 12.2074C93.1786 12.8371 93.5337 13.339 94.0025 13.7131C94.476 14.0824 95.0631 14.267 95.7638 14.267Z" stroke="#24126A" stroke-width="2" mask="url(#path-1-outside-1_6_6)"/>
</svg>
