<svg width="29" height="26" viewBox="0 0 29 26" fill="none" xmlns="http://www.w3.org/2000/svg">
<path d="M12.7974 0C5.7347 0 0 5.83177 0 13C0 20.1682 5.7347 26 12.7974 26C19.8602 26 25.5949 20.1682 25.5949 13C25.5949 5.83177 19.8602 0 12.7974 0ZM19.4376 0.485979C23.7839 2.91589 26.7418 7.59346 26.7418 12.9393C26.7418 18.285 23.7839 23.0234 19.4376 25.3925C24.8705 23.7523 28.6131 18.7103 28.6131 12.9393C28.6131 7.22897 24.8705 2.12617 19.4376 0.485979ZM12.9785 2.97663C13.7029 2.97663 14.2462 3.52336 14.1858 4.25233V4.61682C15.4535 4.79906 16.6004 5.2243 17.6267 5.83177C18.1096 6.07476 18.4718 6.56075 18.4718 7.28972C18.4718 8.20093 17.7474 8.9299 16.8419 8.9299C16.5401 8.9299 16.2383 8.86916 15.9968 8.68691C15.3328 8.32243 14.6688 8.01869 14.0047 7.83645L13.9444 11.5421C17.5663 12.5748 19.1358 14.0935 19.0754 16.8271C19.0754 19.5607 16.9626 21.2617 13.9444 21.5654V22.8411C13.9444 23.5701 13.4011 24.1168 12.6767 24.1168C11.9523 24.1168 11.409 23.5701 11.4694 22.8411V21.5047C9.77917 21.2617 8.14931 20.6542 6.76091 19.743C6.27799 19.4393 5.97616 18.9533 5.97616 18.285C5.97616 17.3131 6.70055 16.6449 7.66639 16.6449C7.96822 16.6449 8.33041 16.7664 8.57187 16.9486C9.59808 17.6168 10.5036 18.1028 11.6505 18.3458L11.7109 14.4579C8.27004 13.486 6.57981 12.0888 6.64018 9.23364C6.64018 6.56075 8.6926 4.79906 11.7109 4.49533V4.19159C11.7109 3.52336 12.2541 2.97663 12.9785 2.97663ZM11.7712 7.59346C10.6243 7.7757 10.081 8.32243 10.081 9.11215C10.081 9.84112 10.3828 10.3878 11.7109 10.8738L11.7712 7.59346ZM13.9444 15.1869L13.884 18.5888C15.031 18.4065 15.5742 17.9206 15.5742 17.0093C15.695 16.1589 15.2724 15.6729 13.9444 15.1869Z" fill="#3E80FF"/>
</svg>
